<svg width="40" height="46" viewBox="0 0 40 46" fill="none" xmlns="http://www.w3.org/2000/svg">
<g filter="url(#filter0_d_545_755)">
<rect x="4" y="0.5" width="36" height="36" rx="18" fill="white" shape-rendering="crispEdges"/>
<path d="M24.7227 10.1867C24.4745 10.186 24.2287 10.2406 23.9994 10.3474C23.7701 10.4542 23.5619 10.6111 23.3869 10.809L17.9413 16.9355C17.76 17.1404 17.6176 17.3847 17.5229 17.6536C17.4282 17.9224 17.3831 18.2102 17.3904 18.4992C17.383 18.7885 17.428 19.0765 17.5227 19.3456C17.6174 19.6147 17.7599 19.8593 17.9413 20.0645L23.3871 26.191C23.5621 26.3889 23.7702 26.5458 23.9995 26.6526C24.2287 26.7594 24.4745 26.814 24.7227 26.8132C25.2273 26.8132 25.7016 26.5922 26.0582 26.191C26.7947 25.3625 26.7947 24.0142 26.0582 23.1857L21.8931 18.5L26.0582 13.8145C26.7947 12.986 26.7947 11.6377 26.0582 10.8092C25.8833 10.6113 25.6751 10.4543 25.4459 10.3475C25.2166 10.2406 24.9708 10.186 24.7227 10.1867ZM24.7227 25.8132C24.5913 25.8136 24.4612 25.7847 24.3398 25.7282C24.2185 25.6717 24.1082 25.5887 24.0156 25.484L18.6751 19.3575C18.4771 19.1342 18.49 18.8365 18.49 18.5187V18.481C18.49 18.1632 18.4771 17.8657 18.6751 17.6427L24.0682 11.5162C24.2571 11.3037 24.482 11.187 24.7489 11.187C25.0162 11.187 25.254 11.304 25.4429 11.5162C25.8329 11.955 25.8262 12.6687 25.4362 13.1075L20.9538 18.1465C20.8702 18.24 20.8232 18.367 20.8229 18.4996C20.8226 18.6322 20.8691 18.7595 20.9522 18.8535L25.4307 23.8925C25.6179 24.1037 25.723 24.3899 25.7229 24.6882C25.7229 24.9864 25.6177 25.2725 25.4304 25.4837C25.3377 25.5885 25.2274 25.6716 25.1059 25.7282C24.9844 25.7847 24.8541 25.8136 24.7227 25.8132Z" fill="#4440FF"/>
</g>
<defs>
<filter id="filter0_d_545_755" x="0.122775" y="-3.37722" width="48.9241" height="48.9241" filterUnits="userSpaceOnUse" color-interpolation-filters="sRGB">
<feFlood flood-opacity="0" result="BackgroundImageFix"/>
<feColorMatrix in="SourceAlpha" type="matrix" values="0 0 0 0 0 0 0 0 0 0 0 0 0 0 0 0 0 0 127 0" result="hardAlpha"/>
<feOffset dx="2.58482" dy="2.58482"/>
<feGaussianBlur stdDeviation="3.23102"/>
<feComposite in2="hardAlpha" operator="out"/>
<feColorMatrix type="matrix" values="0 0 0 0 0.458333 0 0 0 0 0.437326 0 0 0 0 0.437326 0 0 0 0.06 0"/>
<feBlend mode="normal" in2="BackgroundImageFix" result="effect1_dropShadow_545_755"/>
<feBlend mode="normal" in="SourceGraphic" in2="effect1_dropShadow_545_755" result="shape"/>
</filter>
</defs>
</svg>
