<svg width="102" height="102" viewBox="0 0 102 102" fill="none" xmlns="http://www.w3.org/2000/svg">
<path d="M46.75 14.875C46.75 23.0775 40.0775 29.75 31.875 29.75C23.6725 29.75 17 23.0775 17 14.875C17 6.6725 23.6725 0 31.875 0C40.0775 0 46.75 6.6725 46.75 14.875ZM85 48.875C85 57.0775 78.3275 63.75 70.125 63.75C61.9225 63.75 55.25 57.0775 55.25 48.875C55.25 40.6725 61.9225 34 70.125 34C78.3275 34 85 40.6725 85 48.875ZM76.5 48.875C76.5 45.3602 73.6398 42.5 70.125 42.5C66.6102 42.5 63.75 45.3602 63.75 48.875C63.75 52.3898 66.6102 55.25 70.125 55.25C73.6398 55.25 76.5 52.3898 76.5 48.875ZM31.875 68C23.6725 68 17 74.6725 17 82.875C17 91.0775 23.6725 97.75 31.875 97.75C40.0775 97.75 46.75 91.0775 46.75 82.875C46.75 74.6725 40.0775 68 31.875 68ZM55.25 14.875C55.25 6.6725 61.9225 0 70.125 0C78.3275 0 85 6.6725 85 14.875C85 23.0775 78.3275 29.75 70.125 29.75C61.9225 29.75 55.25 23.0775 55.25 14.875ZM63.75 14.875C63.75 18.3897 66.6102 21.25 70.125 21.25C73.6398 21.25 76.5 18.3897 76.5 14.875C76.5 11.3603 73.6398 8.5 70.125 8.5C66.6102 8.5 63.75 11.3603 63.75 14.875ZM31.875 34C23.6725 34 17 40.6725 17 48.875C17 57.0775 23.6725 63.75 31.875 63.75C40.0775 63.75 46.75 57.0775 46.75 48.875C46.75 40.6725 40.0775 34 31.875 34ZM70.125 68C61.9225 68 55.25 74.6725 55.25 82.875C55.25 91.0775 70.125 97.75 70.125 97.75C78.3275 97.75 85 91.0775 85 82.875C85 74.6725 78.3275 68 70.125 68Z" fill="#A7C4B4"/>
</svg>
