<svg width="17" height="16" viewBox="0 0 17 16" fill="none" xmlns="http://www.w3.org/2000/svg">
<path d="M0.801025 8L0.988061 6.28024L1.54042 4.64089L2.43228 3.15861L3.62193 1.9027L5.05376 0.931904L6.6608 0.2916L8.36791 0.0117318L10.0953 0.105387L11.7621 0.568185L13.2905 1.37849L14.609 2.4984L15.6559 3.87557L16.3823 5.44559L16.7541 7.13505L16.7541 8.86495L16.3823 10.5544L15.6559 12.1244L14.609 13.5016L13.2905 14.6215L11.7621 15.4318L10.0953 15.8946L8.36791 15.9883L6.6608 15.7084L5.05376 15.0681L3.62193 14.0973L2.43228 12.8414L1.54042 11.3591L0.988061 9.71976L0.801025 8Z" fill="#3722D1"/>
</svg>
