<svg width="66" height="65" viewBox="0 0 66 65" fill="none" xmlns="http://www.w3.org/2000/svg">
<path d="M33 0C15.065 0 0.5 14.565 0.5 32.5C0.5 50.435 15.065 65 33 65C50.935 65 65.5 50.435 65.5 32.5C65.5 14.565 50.935 0 33 0ZM33 2.5C49.5825 2.5 63 15.9175 63 32.5C63 49.0825 49.5825 62.5 33 62.5C16.4175 62.5 3 49.0825 3 32.5C3 15.9175 16.4175 2.5 33 2.5ZM25.085 17.5C24.8635 17.5 24.6512 17.588 24.4946 17.7446C24.338 17.9012 24.25 18.1135 24.25 18.335V20H20.5C20.3354 19.9993 20.1723 20.0312 20.0201 20.0937C19.8679 20.1562 19.7295 20.2482 19.6129 20.3643C19.4963 20.4805 19.4038 20.6185 19.3406 20.7705C19.2775 20.9225 19.245 21.0854 19.245 21.25V46.25C19.245 46.4146 19.2775 46.5775 19.3406 46.7295C19.4038 46.8815 19.4963 47.0195 19.6129 47.1357C19.7295 47.2518 19.8679 47.3438 20.0201 47.4063C20.1723 47.4688 20.3354 47.5007 20.5 47.5H45.5C45.8315 47.5 46.1495 47.3683 46.3839 47.1339C46.6183 46.8995 46.75 46.5815 46.75 46.25V21.25C46.75 20.9185 46.6183 20.6005 46.3839 20.3661C46.1495 20.1317 45.8315 20 45.5 20H41.75V18.335C41.75 18.1135 41.662 17.9012 41.5054 17.7446C41.3488 17.588 41.1365 17.5 40.915 17.5H40.085C39.8635 17.5 39.6512 17.588 39.4946 17.7446C39.338 17.9012 39.25 18.1135 39.25 18.335V20H26.75V18.335C26.75 18.1135 26.662 17.9012 26.5054 17.7446C26.3488 17.588 26.1365 17.5 25.915 17.5H25.085ZM21.75 22.5H44.25V25H21.75V22.5ZM21.75 27.5H44.25V45H21.75V27.5ZM24.25 30V32.5H26.75V30H24.25ZM29.25 30V32.5H31.75V30H29.25ZM34.25 30V32.5H36.75V30H34.25ZM39.25 30V32.5H41.75V30H39.25ZM24.25 35V37.5H26.75V35H24.25ZM29.25 35V37.5H31.75V35H29.25ZM34.25 35V37.5H36.75V35H34.25ZM39.25 35V37.5H41.75V35H39.25ZM24.25 40V42.5H26.75V40H24.25ZM29.25 40V42.5H31.75V40H29.25ZM34.25 40V42.5H36.75V40H34.25Z" fill="#1E1F1E"/>
</svg>
