<svg width="56" height="50" viewBox="0 0 56 50" fill="none" xmlns="http://www.w3.org/2000/svg">
<path d="M29 18C30.1867 18 31.3467 17.6481 32.3334 16.9888C33.3201 16.3295 34.0892 15.3925 34.5433 14.2961C34.9974 13.1997 35.1162 11.9933 34.8847 10.8295C34.6532 9.66558 34.0818 8.59648 33.2426 7.75736C32.4035 6.91825 31.3344 6.3468 30.1705 6.11529C29.0067 5.88378 27.8003 6.0026 26.7039 6.45673C25.6075 6.91085 24.6705 7.67989 24.0112 8.66658C23.3519 9.65328 23 10.8133 23 12C23 13.5913 23.6321 15.1174 24.7574 16.2426C25.8826 17.3679 27.4087 18 29 18ZM29 8C29.7911 8 30.5645 8.2346 31.2223 8.67413C31.8801 9.11365 32.3928 9.73837 32.6955 10.4693C32.9983 11.2002 33.0775 12.0044 32.9231 12.7804C32.7688 13.5563 32.3878 14.269 31.8284 14.8284C31.269 15.3878 30.5563 15.7688 29.7804 15.9231C29.0044 16.0775 28.2002 15.9983 27.4693 15.6955C26.7384 15.3928 26.1136 14.8801 25.6741 14.2223C25.2346 13.5645 25 12.7911 25 12C25 10.9391 25.4214 9.92172 26.1716 9.17158C26.9217 8.42143 27.9391 8 29 8ZM39 24V23C39 22.2044 38.6839 21.4413 38.1213 20.8787C37.5587 20.3161 36.7956 20 36 20H22C21.2044 20 20.4413 20.3161 19.8787 20.8787C19.3161 21.4413 19 22.2044 19 23V24C19 24.2652 19.1054 24.5196 19.2929 24.7071C19.4804 24.8946 19.7348 25 20 25C20.2652 25 20.5196 24.8946 20.7071 24.7071C20.8946 24.5196 21 24.2652 21 24V23C21 22.7348 21.1054 22.4804 21.2929 22.2929C21.4804 22.1054 21.7348 22 22 22H36C36.2652 22 36.5196 22.1054 36.7071 22.2929C36.8946 22.4804 37 22.7348 37 23V24C37 24.2652 37.1054 24.5196 37.2929 24.7071C37.4804 24.8946 37.7348 25 38 25C38.2652 25 38.5196 24.8946 38.7071 24.7071C38.8946 24.5196 39 24.2652 39 24Z" fill="black"/>
<path d="M54 28V5C54 3.67392 53.4732 2.40215 52.5355 1.46447C51.5979 0.526784 50.3261 0 49 0H9C7.67392 0 6.40215 0.526784 5.46447 1.46447C4.52678 2.40215 4 3.67392 4 5V27.1C2.87064 27.3305 1.8556 27.9442 1.12669 28.8371C0.397783 29.73 -0.000235151 30.8473 1.04228e-07 32V45C1.04228e-07 46.3261 0.526784 47.5979 1.46447 48.5355C2.40215 49.4732 3.67392 50 5 50H18C19.3261 50 20.5979 49.4732 21.5355 48.5355C22.4732 47.5979 23 46.3261 23 45V42H32V45C32 46.3261 32.5268 47.5979 33.4645 48.5355C34.4021 49.4732 35.6739 50 37 50H51C52.3261 50 53.5979 49.4732 54.5355 48.5355C55.4732 47.5979 56 46.3261 56 45V32C56 31.2238 55.8193 30.4582 55.4721 29.7639C55.125 29.0697 54.621 28.4657 54 28ZM54 45C54 45.7957 53.6839 46.5587 53.1213 47.1213C52.5587 47.6839 51.7957 48 51 48H37C36.2043 48 35.4413 47.6839 34.8787 47.1213C34.3161 46.5587 34 45.7957 34 45V32C34 31.7836 33.9298 31.5731 33.8 31.4L32 29H35C35.2652 29 35.5196 28.8946 35.7071 28.7071C35.8946 28.5196 36 28.2652 36 28C36 27.7348 35.8946 27.4804 35.7071 27.2929C35.5196 27.1054 35.2652 27 35 27H30C29.8153 27.0006 29.6344 27.0522 29.4773 27.1493C29.3202 27.2464 29.1931 27.3851 29.11 27.55C29.0258 27.716 28.9896 27.9023 29.0055 28.0878C29.0214 28.2733 29.0887 28.4507 29.2 28.6L32 32.33V40H23V32.33L25.8 28.6C25.9113 28.4507 25.9786 28.2733 25.9945 28.0878C26.0104 27.9023 25.9742 27.716 25.89 27.55C25.8069 27.3851 25.6798 27.2464 25.5227 27.1493C25.3656 27.0522 25.1847 27.0006 25 27H20C19.7348 27 19.4804 27.1054 19.2929 27.2929C19.1054 27.4804 19 27.7348 19 28C19 28.2652 19.1054 28.5196 19.2929 28.7071C19.4804 28.8946 19.7348 29 20 29H23L21.2 31.4C21.0702 31.5731 21 31.7836 21 32V45C21 45.7957 20.6839 46.5587 20.1213 47.1213C19.5587 47.6839 18.7956 48 18 48H5C4.20435 48 3.44129 47.6839 2.87868 47.1213C2.31607 46.5587 2 45.7957 2 45V32C2.00174 31.3811 2.19488 30.7778 2.55294 30.2729C2.911 29.7681 3.41645 29.3863 4 29.18C4.31938 29.0589 4.65842 28.9978 5 29H12C12.2652 29 12.5196 28.8946 12.7071 28.7071C12.8946 28.5196 13 28.2652 13 28C13 27.7348 12.8946 27.4804 12.7071 27.2929C12.5196 27.1054 12.2652 27 12 27H6V5C6 4.20435 6.31607 3.44129 6.87868 2.87868C7.44129 2.31607 8.20435 2 9 2H49C49.7957 2 50.5587 2.31607 51.1213 2.87868C51.6839 3.44129 52 4.20435 52 5V27.1C51.6712 27.0311 51.3359 26.9976 51 27H43C42.7348 27 42.4804 27.1054 42.2929 27.2929C42.1054 27.4804 42 27.7348 42 28C42 28.2652 42.1054 28.5196 42.2929 28.7071C42.4804 28.8946 42.7348 29 43 29H51C51.3416 28.9978 51.6806 29.0589 52 29.18C52.5835 29.3863 53.089 29.7681 53.4471 30.2729C53.8051 30.7778 53.9983 31.3811 54 32V45Z" fill="black"/>
<path d="M44 39C44.7911 39 45.5645 38.7654 46.2223 38.3259C46.8801 37.8864 47.3927 37.2616 47.6955 36.5307C47.9982 35.7998 48.0775 34.9956 47.9231 34.2196C47.7688 33.4437 47.3878 32.731 46.8284 32.1716C46.269 31.6122 45.5563 31.2312 44.7803 31.0769C44.0044 30.9225 43.2001 31.0017 42.4692 31.3045C41.7383 31.6072 41.1136 32.1199 40.6741 32.7777C40.2346 33.4355 40 34.2089 40 35C40 36.0609 40.4214 37.0783 41.1715 37.8284C41.9217 38.5786 42.9391 39 44 39ZM44 33C44.3955 33 44.7822 33.1173 45.1111 33.3371C45.44 33.5568 45.6964 33.8692 45.8477 34.2346C45.9991 34.6001 46.0387 35.0022 45.9615 35.3902C45.8844 35.7781 45.6939 36.1345 45.4142 36.4142C45.1345 36.6939 44.7781 36.8844 44.3902 36.9616C44.0022 37.0387 43.6001 36.9991 43.2346 36.8478C42.8692 36.6964 42.5568 36.44 42.337 36.1111C42.1173 35.7822 42 35.3956 42 35C42 34.4696 42.2107 33.9609 42.5858 33.5858C42.9608 33.2107 43.4695 33 44 33ZM47 41H41C40.2043 41 39.4413 41.3161 38.8787 41.8787C38.316 42.4413 38 43.2044 38 44V45C38 45.2652 38.1053 45.5196 38.2929 45.7071C38.4804 45.8946 38.7348 46 39 46C39.2652 46 39.5195 45.8946 39.7071 45.7071C39.8946 45.5196 40 45.2652 40 45V44C40 43.7348 40.1053 43.4804 40.2929 43.2929C40.4804 43.1054 40.7348 43 41 43H47C47.2652 43 47.5195 43.1054 47.7071 43.2929C47.8946 43.4804 48 43.7348 48 44V45C48 45.2652 48.1053 45.5196 48.2929 45.7071C48.4804 45.8946 48.7348 46 49 46C49.2652 46 49.5195 45.8946 49.7071 45.7071C49.8946 45.5196 50 45.2652 50 45V44C50 43.2044 49.6839 42.4413 49.1213 41.8787C48.5587 41.3161 47.7956 41 47 41ZM11.1 39C11.8911 39 12.6645 38.7654 13.3223 38.3259C13.9801 37.8864 14.4927 37.2616 14.7955 36.5307C15.0982 35.7998 15.1775 34.9956 15.0231 34.2196C14.8688 33.4437 14.4878 32.731 13.9284 32.1716C13.369 31.6122 12.6563 31.2312 11.8803 31.0769C11.1044 30.9225 10.3001 31.0017 9.56924 31.3045C8.83834 31.6072 8.21362 32.1199 7.7741 32.7777C7.33457 33.4355 7.09998 34.2089 7.09998 35C7.09998 36.0609 7.5214 37.0783 8.27155 37.8284C9.02169 38.5786 10.0391 39 11.1 39ZM11.1 33C11.4955 33 11.8822 33.1173 12.2111 33.3371C12.54 33.5568 12.7964 33.8692 12.9477 34.2346C13.0991 34.6001 13.1387 35.0022 13.0615 35.3902C12.9844 35.7781 12.7939 36.1345 12.5142 36.4142C12.2345 36.6939 11.8781 36.8844 11.4902 36.9616C11.1022 37.0387 10.7001 36.9991 10.3346 36.8478C9.96916 36.6964 9.6568 36.44 9.43704 36.1111C9.21727 35.7822 9.09998 35.3956 9.09998 35C9.09998 34.4696 9.31069 33.9609 9.68576 33.5858C10.0608 33.2107 10.5695 33 11.1 33ZM14.1 41H8.09998C7.30433 41 6.54126 41.3161 5.97865 41.8787C5.41605 42.4413 5.09998 43.2044 5.09998 44V45C5.09998 45.2652 5.20533 45.5196 5.39287 45.7071C5.5804 45.8946 5.83476 46 6.09998 46C6.36519 46 6.61955 45.8946 6.80708 45.7071C6.99462 45.5196 7.09998 45.2652 7.09998 45V44C7.09998 43.7348 7.20533 43.4804 7.39287 43.2929C7.5804 43.1054 7.83476 43 8.09998 43H14.1C14.3652 43 14.6195 43.1054 14.8071 43.2929C14.9946 43.4804 15.1 43.7348 15.1 44V45C15.1 45.2652 15.2053 45.5196 15.3929 45.7071C15.5804 45.8946 15.8348 46 16.1 46C16.3652 46 16.6195 45.8946 16.8071 45.7071C16.9946 45.5196 17.1 45.2652 17.1 45V44C17.1 43.2044 16.7839 42.4413 16.2213 41.8787C15.6587 41.3161 14.8956 41 14.1 41Z" fill="black"/>
<path d="M9 6C9.55228 6 10 5.55228 10 5C10 4.44772 9.55228 4 9 4C8.44772 4 8 4.44772 8 5C8 5.55228 8.44772 6 9 6Z" fill="black"/>
<path d="M13 6C13.5523 6 14 5.55228 14 5C14 4.44772 13.5523 4 13 4C12.4477 4 12 4.44772 12 5C12 5.55228 12.4477 6 13 6Z" fill="black"/>
<path d="M17 6C17.5523 6 18 5.55228 18 5C18 4.44772 17.5523 4 17 4C16.4477 4 16 4.44772 16 5C16 5.55228 16.4477 6 17 6Z" fill="black"/>
<path d="M16 29C16.5523 29 17 28.5523 17 28C17 27.4477 16.5523 27 16 27C15.4477 27 15 27.4477 15 28C15 28.5523 15.4477 29 16 29Z" fill="black"/>
<path d="M39 29C39.5523 29 40 28.5523 40 28C40 27.4477 39.5523 27 39 27C38.4477 27 38 27.4477 38 28C38 28.5523 38.4477 29 39 29Z" fill="black"/>
</svg>
