<svg width="42" height="49" viewBox="0 0 42 49" fill="none" xmlns="http://www.w3.org/2000/svg">
<path d="M40.572 14.3448L27.3053 1.078C26.6167 0.388607 25.6826 0.000857755 24.7083 0H3.675C2.70033 0 1.76558 0.387187 1.07638 1.07638C0.387187 1.76558 0 2.70033 0 3.675V9.8C0 10.1249 0.129062 10.4365 0.358794 10.6662C0.588526 10.8959 0.90011 11.025 1.225 11.025C1.54989 11.025 1.86147 10.8959 2.09121 10.6662C2.32094 10.4365 2.45 10.1249 2.45 9.8V3.675C2.45 3.35011 2.57906 3.03853 2.80879 2.80879C3.03853 2.57906 3.35011 2.45 3.675 2.45H24.5V13.475C24.5 14.4497 24.8872 15.3844 25.5764 16.0736C26.2656 16.7628 27.2003 17.15 28.175 17.15H39.2V45.325C39.2 45.6499 39.0709 45.9615 38.8412 46.1912C38.6115 46.4209 38.2999 46.55 37.975 46.55H3.675C3.35011 46.55 3.03853 46.4209 2.80879 46.1912C2.57906 45.9615 2.45 45.6499 2.45 45.325V14.7C2.45 14.3751 2.32094 14.0635 2.09121 13.8338C1.86147 13.6041 1.54989 13.475 1.225 13.475C0.90011 13.475 0.588526 13.6041 0.358794 13.8338C0.129062 14.0635 0 14.3751 0 14.7V45.325C0 46.2997 0.387187 47.2344 1.07638 47.9236C1.76558 48.6128 2.70033 49 3.675 49H37.975C38.9497 49 39.8844 48.6128 40.5736 47.9236C41.2628 47.2344 41.65 46.2997 41.65 45.325V16.9417C41.6491 15.9674 41.2614 15.0333 40.572 14.3448ZM26.95 13.475V4.17725L37.4728 14.7H28.175C27.8501 14.7 27.5385 14.5709 27.3088 14.3412C27.0791 14.1115 26.95 13.7999 26.95 13.475ZM8.575 23.275C8.575 22.9501 8.70406 22.6385 8.93379 22.4088C9.16353 22.1791 9.47511 22.05 9.8 22.05H20.825C21.1499 22.05 21.4615 22.1791 21.6912 22.4088C21.9209 22.6385 22.05 22.9501 22.05 23.275C22.05 23.5999 21.9209 23.9115 21.6912 24.1412C21.4615 24.3709 21.1499 24.5 20.825 24.5H9.8C9.47511 24.5 9.16353 24.3709 8.93379 24.1412C8.70406 23.9115 8.575 23.5999 8.575 23.275ZM9.8 29.4H31.85C32.1749 29.4 32.4865 29.5291 32.7162 29.7588C32.9459 29.9885 33.075 30.3001 33.075 30.625C33.075 30.9499 32.9459 31.2615 32.7162 31.4912C32.4865 31.7209 32.1749 31.85 31.85 31.85H9.8C9.47511 31.85 9.16353 31.7209 8.93379 31.4912C8.70406 31.2615 8.575 30.9499 8.575 30.625C8.575 30.3001 8.70406 29.9885 8.93379 29.7588C9.16353 29.5291 9.47511 29.4 9.8 29.4ZM33.075 37.975C33.075 38.2999 32.9459 38.6115 32.7162 38.8412C32.4865 39.0709 32.1749 39.2 31.85 39.2H9.8C9.47511 39.2 9.16353 39.0709 8.93379 38.8412C8.70406 38.6115 8.575 38.2999 8.575 37.975C8.575 37.6501 8.70406 37.3385 8.93379 37.1088C9.16353 36.8791 9.47511 36.75 9.8 36.75H31.85C32.1749 36.75 32.4865 36.8791 32.7162 37.1088C32.9459 37.3385 33.075 37.6501 33.075 37.975Z" fill="black"/>
</svg>
