<svg width="102" height="102" viewBox="0 0 102 102" fill="none" xmlns="http://www.w3.org/2000/svg">
<path d="M51 102L38.25 63.75L0 51L38.25 38.25L51 0L63.75 38.25L102 51L63.75 63.75L51 102ZM31.5563 31.5563L33.5665 25.67L17 17.0042L25.6658 33.5708L31.552 31.5605L31.5563 31.5563ZM70.4438 31.5563L76.33 33.5665L84.9958 17.0042L68.4293 25.67L70.4395 31.5563H70.4438ZM31.552 70.4438L25.6658 68.4335L17 85L33.5622 76.3343L31.552 70.4438ZM70.4438 70.4438L68.4335 76.33L85 84.9958L76.3343 68.4293L70.448 70.4395L70.4438 70.4438Z" fill="#6F90A5"/>
</svg>
