<svg width="24" height="25" viewBox="0 0 24 25" fill="none" xmlns="http://www.w3.org/2000/svg">
<path fill-rule="evenodd" clip-rule="evenodd" d="M12.0572 1.95361C14.2479 1.9536 15.9686 1.95359 17.312 2.1342C18.6886 2.31929 19.7809 2.70632 20.6391 3.56452C21.4973 4.42272 21.8843 5.51498 22.0694 6.89163C22.25 8.23505 22.25 9.95571 22.25 12.1464V12.2608C22.25 14.4515 22.25 16.1722 22.0694 17.5156C21.8843 18.8922 21.4973 19.9845 20.6391 20.8427C19.7809 21.7009 18.6886 22.0879 17.312 22.273C15.9686 22.4536 14.2479 22.4536 12.0572 22.4536H11.9428C9.7521 22.4536 8.03144 22.4536 6.68802 22.273C5.31137 22.0879 4.21911 21.7009 3.36091 20.8427C2.50272 19.9845 2.11568 18.8922 1.93059 17.5156C1.74998 16.1722 1.74999 14.4515 1.75 12.2608V12.1464C1.74999 9.95573 1.74998 8.23505 1.93059 6.89163C2.11568 5.51498 2.50272 4.42272 3.36091 3.56452C4.21911 2.70632 5.31137 2.31929 6.68802 2.1342C8.03143 1.95359 9.7521 1.9536 11.9428 1.95361H12.0572ZM16.5 12.2036C16.5 14.6889 14.4853 16.7036 12 16.7036C9.51472 16.7036 7.5 14.6889 7.5 12.2036C7.5 9.71833 9.51472 7.70361 12 7.70361C14.4853 7.70361 16.5 9.71833 16.5 12.2036ZM17.5123 7.70361C18.0621 7.70361 18.5078 7.2559 18.5078 6.70361C18.5078 6.15133 18.0621 5.70361 17.5123 5.70361H17.5033C16.9535 5.70361 16.5078 6.15133 16.5078 6.70361C16.5078 7.25589 16.9535 7.70361 17.5033 7.70361H17.5123Z" fill="#3722D1"/>
</svg>
