<svg width="102" height="102" viewBox="0 0 102 102" fill="none" xmlns="http://www.w3.org/2000/svg">
<path d="M53.2996 53.5911C66.2963 68.1809 67.2438 84.1813 55.5259 95.916C49.5013 101.932 40.1457 102 30.344 102H0L0.0934708 71.8772C0.0934708 62.1436 0.174196 52.6182 6.21581 46.5767C9.10152 43.4457 12.722 41.0832 16.75 39.7027C20.778 38.3222 25.0865 37.9673 29.2861 38.67C36.5082 40.173 43.1624 43.6753 48.4901 48.7774C56.9875 33.4824 71.8366 6.97095 73.9142 4.89337C76.2134 2.59935 79.1409 1.03806 82.3269 0.406672C85.5129 -0.224715 88.8145 0.102113 91.8148 1.34588C94.8152 2.58966 97.3797 4.69459 99.1846 7.39488C100.989 10.0952 101.954 13.2697 101.955 16.5176C101.962 18.6773 101.54 20.8169 100.714 22.8123C99.8875 24.8077 98.6734 26.6192 97.1417 28.1419C94.7667 30.5126 68.5184 45.1789 53.2996 53.5911ZM60.5011 10.5016C60.3481 7.69284 59.1349 5.04683 57.1066 3.09786C55.0783 1.14889 52.386 0.0421693 49.5734 0.00118044C46.7608 -0.0398085 44.0374 0.987989 41.9531 2.87703C39.8689 4.76606 38.5791 7.37559 38.3443 10.1787C37.622 18.3998 45.5076 22.2193 46.7822 38.2706C52.8493 24.5475 57.4038 16.3732 60.5011 10.5016ZM91.7204 41.542C83.427 45.9776 73.2472 51.1694 63.7769 55.2651C79.8114 56.5397 83.6054 64.4251 91.8181 63.7071C94.6022 63.4717 97.1957 62.1967 99.0823 60.1359C100.969 58.075 102.011 55.3794 102 52.5854C101.989 49.7914 100.927 47.1038 99.0245 45.0575C97.1221 43.0112 94.519 41.7561 91.7331 41.542H91.7204Z" fill="#BFB094"/>
</svg>
