<svg width="104" height="56" viewBox="0 0 104 56" fill="none" xmlns="http://www.w3.org/2000/svg">
<path d="M30.6294 33.4871V38.3725H26.7078V42.1054C26.6886 43.4781 26.1332 44.7891 25.1597 45.7599C24.1861 46.7306 22.8712 47.2843 21.4945 47.3034H16.4778V42.418H21.8127V22.3482H26.7078V33.488H30.6285L30.6294 33.4871Z" fill="#3722D1"/>
<path d="M64.0251 38.3557H30.3682V33.4684H34.4658V15.0971H39.4263V23.3635C40.0874 23.1639 40.775 23.0651 41.4658 23.0705H51.7369C53.5546 23.075 55.2997 23.7824 56.6049 25.0438C57.9101 26.3052 58.6737 28.0222 58.7351 29.8335C57.2913 28.6174 55.4505 27.971 53.5611 28.0166C53.2663 28.0166 53.0126 28.0362 52.7187 28.0558C56.0114 28.3693 58.5797 30.3225 58.736 32.6677V33.4694H64.0971C64.0971 33.4694 64.6241 36.298 68.4147 38.366L64.0251 38.3557ZM41.462 28.0166C40.9737 28.0189 40.5017 28.1924 40.1288 28.5069C39.7559 28.8214 39.5059 29.2567 39.4226 29.7365V33.4694H53.7904V30.0687C53.7774 29.5283 53.5562 29.0136 53.1729 28.6314C52.7895 28.2492 52.2733 28.0287 51.7313 28.0156L41.462 28.0166Z" fill="#3722D1"/>
<path d="M82.7628 33.4675H89.2649V33.7409C89.1273 35.8314 87.2254 37.6698 84.8743 38.3529L74.9326 38.3781C74.9326 38.3781 81.5891 35.5477 82.7628 33.4675ZM95.1062 33.1549C95.087 34.5277 94.5315 35.8389 93.5578 36.8097C92.584 37.7804 91.2688 38.3341 89.892 38.3529H85.5408C86.6757 38.1354 87.7354 37.6305 88.6181 36.8868C89.1689 36.4026 89.5993 35.7974 89.8754 35.119C90.1515 34.4406 90.2658 33.7075 90.2093 32.9775V14.6464H95.109V33.1549H95.1062Z" fill="#3722D1"/>
<path d="M103.946 14.6473H99.0259V38.3538H103.946V14.6473Z" fill="#3722D1"/>
<path d="M3.2143 16.7433C3.68248 17.1707 4.29421 17.4077 4.92897 17.4077C5.56372 17.4077 6.17546 17.1707 6.64363 16.7433C6.89252 16.5289 7.08926 16.2609 7.21898 15.9595C7.3487 15.6582 7.408 15.3314 7.3924 15.0038C7.37986 14.3642 7.11624 13.755 6.65817 13.3071C6.2001 12.8592 5.58411 12.6084 4.94253 12.6084C4.30096 12.6084 3.68498 12.8592 3.22691 13.3071C2.76884 13.755 2.50522 14.3642 2.49268 15.0038C2.47104 15.3299 2.52524 15.6565 2.65106 15.9582C2.77689 16.26 2.97092 16.5286 3.21804 16.7433" fill="#3722D1"/>
<path d="M9.63963 22.3361H7.01334C5.17419 22.3451 3.41265 23.0762 2.11031 24.3711C0.807977 25.666 0.0697212 27.4203 0.0554653 29.254V31.4433C0.0362706 32.3355 0.200223 33.2221 0.537259 34.0488C0.874296 34.8754 1.37729 35.6246 2.01535 36.2504C2.62856 36.9004 3.36568 37.4219 4.18354 37.7844C5.00141 38.1468 5.88359 38.343 6.77842 38.3613C5.53932 36.948 4.88759 35.1166 4.95612 33.2407C4.95612 33.0858 4.96454 32.915 4.97858 32.7386C4.46386 32.1308 4.16379 31.3711 4.12453 30.5765C4.08528 29.7819 4.30902 28.9965 4.76132 28.3411C5.21363 27.6858 5.86943 27.1968 6.62776 26.9495C7.3861 26.7021 8.20494 26.7102 8.95825 26.9723L9.64056 22.7252V27.2924C10.0882 27.5616 10.4723 27.9237 10.767 28.3542C11.0616 28.7848 11.2597 29.2735 11.3479 29.7872C11.4361 30.3009 11.4122 30.8275 11.278 31.3312C11.1437 31.8349 10.9022 32.3039 10.5699 32.7062C10.2376 33.1084 9.82224 33.4346 9.35215 33.6625C8.88205 33.8904 8.36823 34.0146 7.84567 34.0267C7.3231 34.0388 6.80406 33.9385 6.32384 33.7327C5.84363 33.5269 5.41353 33.2203 5.06281 32.8339C5.21682 34.1836 5.72067 35.4701 6.52477 36.5667C6.87906 37.0683 7.33706 37.4884 7.86791 37.7986C8.39877 38.1088 8.99014 38.3019 9.60219 38.365H14.5627V26.9079L9.63963 22.3361Z" fill="#3722D1"/>
<path d="M8.56526 16.7433C9.03344 17.1707 9.64517 17.4077 10.2799 17.4077C10.9147 17.4077 11.5264 17.1707 11.9946 16.7433C12.2435 16.5289 12.4402 16.2609 12.5699 15.9595C12.6997 15.6582 12.759 15.3314 12.7434 15.0038C12.7308 14.3642 12.4672 13.755 12.0091 13.3071C11.5511 12.8592 10.9351 12.6084 10.2935 12.6084C9.65192 12.6084 9.03594 12.8592 8.57787 13.3071C8.1198 13.755 7.85618 14.3642 7.84364 15.0038C7.82228 15.3298 7.87662 15.6564 8.00243 15.958C8.12823 16.2597 8.32211 16.5285 8.569 16.7433" fill="#3722D1"/>
<path d="M4.97754 32.7415L5.0599 32.8348C5.04118 32.692 5.02528 32.5474 5.01217 32.3999C4.9972 32.5147 4.98596 32.6276 4.97754 32.7396" fill="white"/>
<path d="M71.2928 14.8815C71.321 15.3418 71.4853 15.7834 71.765 16.1506C72.0448 16.5178 72.4274 16.7942 72.8645 16.9447C73.3016 17.0952 73.7737 17.1132 74.2211 16.9964C74.6685 16.8796 75.0711 16.6333 75.3781 16.2884C75.6852 15.9436 75.8829 15.5158 75.9463 15.059C76.0096 14.6023 75.9357 14.137 75.734 13.722C75.5324 13.3071 75.2119 12.961 74.8131 12.7276C74.4142 12.4941 73.955 12.3837 73.4933 12.4103C72.873 12.4476 72.2929 12.7287 71.8804 13.1921C71.4678 13.6554 71.2565 14.263 71.2928 14.8815Z" fill="#00E266"/>
<path d="M72.6676 22.1205C70.5888 22.3497 68.6678 23.3355 67.2726 24.889C65.8773 26.4425 65.1058 28.4546 65.1058 30.54C65.1058 32.6254 65.8773 34.6375 67.2726 36.191C68.6678 37.7445 70.5888 38.7303 72.6676 38.9595C67.7866 39.7994 63.2285 35.4039 63.3399 30.5409C63.2323 25.6788 67.7885 21.2853 72.6676 22.1205Z" fill="#013DB9"/>
<path d="M79.8549 31.49C80.4028 29.4757 80.1856 27.3306 79.2449 25.4662C78.3043 23.6017 76.7064 22.1492 74.7578 21.387C72.8092 20.6249 70.6469 20.6068 68.6858 21.3364C66.7247 22.0659 65.1027 23.4916 64.1309 25.3401C65.1295 20.5032 70.8987 17.8744 75.3988 19.7576C79.9756 21.4327 82.4128 27.2663 79.8521 31.49" fill="#00E266"/>
<path d="M75.4017 35.6662C77.4508 35.2506 79.2742 34.0961 80.5229 32.4237C81.7716 30.7513 82.3578 28.6784 82.1694 26.602C81.981 24.5255 81.0311 22.5913 79.5016 21.1695C77.9721 19.7477 75.9705 18.9383 73.8799 18.8962C78.6645 17.6214 83.6025 21.5904 83.9301 26.4432C84.4758 31.2763 80.337 36.0609 75.4017 35.6662Z" fill="#013DB9"/>
<path d="M68.3606 24.7848C67.4698 26.6713 67.3081 28.819 67.9065 30.8169C68.5048 32.8148 69.8212 34.5225 71.6036 35.613C73.3859 36.7035 75.5091 37.1003 77.5665 36.7273C79.624 36.3543 81.4712 35.2379 82.7546 33.5916C80.9192 38.1784 74.7783 39.7508 70.6807 37.1145C66.469 34.6629 65.0969 28.4934 68.3624 24.7839" fill="#013DB9"/>
<path d="M30.7509 56.0001C30.7762 55.7854 30.7865 55.3645 30.8136 55.1602C30.8586 54.8802 30.9129 54.6002 30.9643 54.3202C31.0529 53.9506 31.1639 53.5866 31.2966 53.2303C31.3696 53.0642 31.4257 52.857 31.5072 52.6974C31.5493 52.6041 31.7777 52.1375 31.8189 52.0488L31.8919 51.9247L32.0369 51.6765C32.5288 50.8442 33.1209 50.0751 33.8003 49.3863C34.6275 48.5636 35.5488 47.8407 36.5454 47.2325C37.5523 46.631 38.6186 46.1347 39.7276 45.7515C45.4005 43.7917 51.5778 44.374 57.3526 45.5555C64.5482 46.9478 71.9207 48.4345 79.2539 48.623C83.5443 48.7312 88.1642 48.8152 92.011 46.6893C93.2895 45.9636 94.3483 44.9078 95.0762 43.6331C94.5605 45.0778 93.6311 46.34 92.4031 47.2633C88.2213 50.4082 82.0318 50.5743 76.9842 50.6079C71.699 50.5105 66.4345 49.9188 61.2602 48.8404C55.5602 47.7635 49.7433 46.1443 43.9114 46.722C42.4856 46.8466 41.0751 47.1079 39.6996 47.5022C35.5917 48.6603 31.6729 51.6419 30.75 55.9944" fill="#013DB9"/>
<path d="M8.9011 11.7664C8.46869 7.41762 13.0792 4.99031 16.7772 4.35012C18.4717 4.06593 20.1944 3.98634 21.908 4.11309C27.7007 4.43878 33.483 6.29215 39.182 6.58984C42.4513 6.72236 47.1376 6.95567 49.1789 3.90591C48.2336 6.84929 44.8108 7.87395 42.0535 8.2855C39.1894 8.67388 36.2856 8.67137 33.4221 8.27804C29.0896 7.74611 24.7178 6.63371 20.3665 6.30241C18.3815 6.10611 16.3774 6.24589 14.4391 6.71584C11.7951 7.37936 9.40371 8.89024 8.90204 11.7664" fill="#013DB9"/>
<path d="M53.6483 6.42563V0.981232H51.6069V0.255188H56.516V0.981232H54.4654V6.42749L53.6483 6.42563Z" fill="#3722D1"/>
<path d="M54.6037 6.56186H53.5077V1.1156H51.4673V0.114258H56.6524V1.1156H54.6027V6.56186H54.6037ZM53.7866 6.28189H54.3257V0.835631H56.3764V0.38769H51.7453V0.835631H53.7884L53.7866 6.28189Z" fill="#3722D1"/>
<path d="M57.2461 6.42471V0.254272H58.006V2.46601C58.1702 2.26977 58.3764 2.11278 58.6095 2.00666C58.8426 1.90054 59.0967 1.84798 59.3529 1.85287C59.632 1.81836 59.915 1.87033 60.1635 2.00172C60.412 2.13311 60.6139 2.33756 60.7419 2.58732C60.8635 2.90662 60.9176 3.24752 60.901 3.58866V6.42379H60.141V3.58587C60.141 2.86294 59.8249 2.50115 59.1928 2.50053C58.9697 2.49987 58.7507 2.55989 58.5592 2.67411C58.3692 2.78172 58.2199 2.94862 58.1343 3.14912C58.0374 3.41332 57.9935 3.69394 58.0051 3.97501V6.42192L57.2461 6.42471Z" fill="#3722D1"/>
<path d="M61.0403 6.56186H60.0023V3.58862C60.0023 2.94284 59.7458 2.64235 59.1927 2.64235C58.9951 2.64301 58.8012 2.69616 58.6311 2.79632C58.4662 2.88803 58.337 3.03231 58.2642 3.20601C58.1755 3.45333 58.1355 3.71536 58.1462 3.97778V6.5628H57.1055V0.114258H58.1434V2.13654C58.4821 1.85603 58.9107 1.70631 59.3509 1.71472C59.6568 1.67951 59.9662 1.73887 60.2372 1.88475C60.5083 2.03063 60.7278 2.256 60.8661 2.53036C60.9965 2.86771 61.0549 3.22846 61.0375 3.58956V6.5628L61.0403 6.56186ZM60.2802 6.28189H60.7623V3.58583C60.7777 3.26498 60.7276 2.94435 60.6153 2.64329C60.4982 2.41776 60.314 2.23389 60.088 2.11693C59.8619 1.99996 59.605 1.95563 59.3527 1.99002C59.1161 1.98438 58.8813 2.03235 58.666 2.13031C58.4507 2.22827 58.2606 2.37367 58.1098 2.55556L57.8664 2.83552V0.391421H57.3844V6.28656H57.8664V3.97872C57.8546 3.67902 57.9022 3.37992 58.0068 3.09869C58.1037 2.87096 58.2731 2.68139 58.4888 2.55929C58.7018 2.43316 58.945 2.36675 59.1927 2.36705C59.6887 2.36705 60.2802 2.57889 60.2802 3.5905V6.28564V6.28189Z" fill="#3722D1"/>
<path d="M65.1184 4.98194L65.9027 5.08086C65.8111 5.52182 65.5592 5.91344 65.1955 6.18046C64.8319 6.44747 64.3821 6.57102 63.9325 6.52735C63.6345 6.54447 63.3363 6.49543 63.0595 6.38376C62.7828 6.27208 62.5343 6.10056 62.332 5.88156C61.9526 5.41508 61.7602 4.82487 61.792 4.22511C61.7638 3.62167 61.9482 3.02741 62.3133 2.54531C62.5037 2.31516 62.7456 2.13272 63.0194 2.01263C63.2933 1.89253 63.5916 1.83814 63.8904 1.8538C64.182 1.8386 64.4732 1.89258 64.7398 2.01133C65.0065 2.13008 65.2411 2.3102 65.4244 2.53691C65.7794 3.00918 65.9588 3.58979 65.9317 4.17937C65.9317 4.22603 65.9317 4.29416 65.927 4.38562H62.581C62.5869 4.76876 62.7136 5.14033 62.9432 5.44762C63.0896 5.62404 63.2816 5.75702 63.4986 5.83207C63.7155 5.90711 63.9489 5.92134 64.1734 5.8732C64.3979 5.82507 64.6048 5.71643 64.7716 5.5591C64.9384 5.40178 65.0587 5.20181 65.1193 4.98101M62.6231 3.75477H65.1296C65.1199 3.45005 65.0189 3.1552 64.8395 2.90832C64.7277 2.76873 64.5851 2.65684 64.4227 2.58139C64.2603 2.50595 64.0826 2.469 63.9035 2.47346C63.7346 2.46816 63.5665 2.4987 63.4103 2.56305C63.2541 2.6274 63.1134 2.7241 62.9975 2.84674C62.7674 3.09625 62.6345 3.41972 62.6231 3.7585" fill="#3722D1"/>
<path d="M63.9305 6.66545C63.6128 6.68231 63.2951 6.62889 63.0005 6.50901C62.7058 6.38914 62.4414 6.20579 62.2262 5.97207C61.8249 5.48049 61.6205 4.8581 61.6524 4.22508C61.6245 3.58992 61.8194 2.96492 62.2037 2.45757C62.407 2.21115 62.6651 2.01538 62.9576 1.88578C63.25 1.75619 63.5688 1.69635 63.8884 1.711C64.2011 1.6959 64.5129 1.75462 64.7985 1.88241C65.0841 2.01019 65.3354 2.20343 65.532 2.44637C65.9054 2.94354 66.0952 3.55408 66.0692 4.1747C66.0692 4.22229 66.0692 4.29228 66.0645 4.3856L66.0598 4.51904H62.7307C62.7559 4.82332 62.8665 5.11437 63.0498 5.35895C63.1808 5.51617 63.3525 5.63446 63.5463 5.70089C63.7401 5.76732 63.9486 5.77932 64.1488 5.73558C64.349 5.69184 64.5333 5.59404 64.6815 5.45289C64.8297 5.31174 64.9361 5.13266 64.9891 4.93526L65.0266 4.83168L66.0785 4.96325L66.0374 5.11724C65.9379 5.58787 65.6684 6.0056 65.2801 6.29092C64.8918 6.57623 64.4117 6.70921 63.9315 6.66452M63.8894 1.99003C63.6111 1.9742 63.3331 2.02401 63.0778 2.1354C62.8225 2.2468 62.5971 2.41664 62.4199 2.63115C62.0765 3.08918 61.9034 3.65198 61.9304 4.22321C61.8997 4.78901 62.0793 5.34623 62.4349 5.78822C62.6237 5.99332 62.8562 6.15355 63.1154 6.25708C63.3746 6.36061 63.6538 6.40482 63.9324 6.38642C64.3234 6.42763 64.7164 6.33124 65.0435 6.11394C65.3707 5.89665 65.6114 5.57212 65.7238 5.19656L65.21 5.13124C65.1234 5.3983 64.9528 5.63046 64.7236 5.79333C64.4943 5.9562 64.2186 6.04112 63.9371 6.03552C63.7262 6.04395 63.5163 6.00252 63.3245 5.91461C63.1327 5.82671 62.9645 5.69482 62.8336 5.52973C62.5872 5.19954 62.4504 4.80083 62.4424 4.38933L62.434 4.24282H65.7922C65.7922 4.21669 65.7922 4.19429 65.7922 4.17562C65.8174 3.61803 65.6495 3.06875 65.3167 2.61996C65.1462 2.40967 64.9278 2.24294 64.6798 2.13355C64.4317 2.02417 64.161 1.97528 63.8903 1.99096M65.282 3.89566H62.4742L62.4854 3.74822C62.4993 3.37812 62.6438 3.02481 62.8935 2.75061C63.0227 2.61488 63.1792 2.50789 63.3528 2.43665C63.5263 2.3654 63.713 2.33151 63.9006 2.33718C64.1006 2.33268 64.299 2.37421 64.4803 2.45853C64.6616 2.54286 64.821 2.6677 64.9461 2.82339C65.1442 3.09165 65.2565 3.41337 65.268 3.74635L65.282 3.89566ZM62.7784 3.61569H64.9732C64.9504 3.39132 64.8673 3.17726 64.7327 2.99604C64.6339 2.87125 64.5072 2.77128 64.3627 2.70418C64.2182 2.63708 64.0599 2.60473 63.9006 2.60969C63.7508 2.60387 63.6015 2.6299 63.4625 2.68606C63.3236 2.74221 63.1982 2.8272 63.0947 2.93538C62.9214 3.1239 62.8106 3.36115 62.7775 3.61476" fill="#3722D1"/>
<path d="M66.8403 6.42468V1.95269H67.5208V2.63115C67.8091 2.1129 68.1326 1.85408 68.4914 1.85471C68.7705 1.86141 69.0422 1.94578 69.2757 2.09828L69.0127 2.80006C68.844 2.69559 68.6497 2.63912 68.4511 2.63674C68.2823 2.63004 68.1165 2.68315 67.9833 2.78667C67.85 2.89019 67.7578 3.03743 67.723 3.20227C67.6357 3.48898 67.5931 3.78736 67.5966 4.08696V6.42655L66.8403 6.42468Z" fill="#3722D1"/>
<path d="M67.7408 6.56189H66.7019V1.81274H67.6603V2.17389C67.7548 2.039 67.8789 1.92748 68.0233 1.84789C68.1677 1.7683 68.3285 1.72276 68.4933 1.71475C68.7974 1.72171 69.0936 1.81282 69.3488 1.97792L69.4424 2.03764L69.0821 3.00166L68.9388 2.91673C68.7926 2.82512 68.6239 2.77511 68.4512 2.77208C68.3123 2.76533 68.1756 2.80881 68.0662 2.89453C67.9568 2.98026 67.8822 3.10247 67.856 3.23869C67.7732 3.51091 67.7328 3.79416 67.7361 4.07858V6.55628L67.7408 6.56189ZM66.9809 6.28192H67.4628V4.08419C67.4597 3.77037 67.5046 3.45788 67.5958 3.1575C67.6392 2.96452 67.7488 2.79268 67.9056 2.67157C68.0624 2.55046 68.2567 2.48766 68.4549 2.49398C68.622 2.49511 68.787 2.5317 68.9388 2.60131L69.1054 2.1571C68.9183 2.05221 68.708 1.99514 68.4933 1.99098C68.1901 1.99098 67.9037 2.22802 67.6425 2.6965L67.3823 3.16311V2.08803H66.979V6.28752L66.9809 6.28192Z" fill="#3722D1"/>
<path d="M72.6461 5.87222C72.1944 6.28444 71.6066 6.51689 70.9942 6.52547C70.6133 6.54265 70.2372 6.43408 69.9244 6.21658C69.7735 6.10471 69.6526 5.95742 69.5724 5.78779C69.4923 5.61817 69.4553 5.43144 69.4649 5.24416C69.4572 5.03992 69.503 4.83721 69.5977 4.65593C69.6924 4.47465 69.8327 4.32103 70.0049 4.21015C70.1724 4.09711 70.3578 4.01318 70.5534 3.96193C70.776 3.90736 71.0021 3.86806 71.2301 3.84433C71.6901 3.80476 72.1447 3.71686 72.5863 3.58209C72.5863 3.47944 72.591 3.41319 72.591 3.38613C72.6038 3.26824 72.5911 3.14898 72.554 3.03633C72.5169 2.92367 72.4561 2.82023 72.3757 2.73288C72.1277 2.54423 71.8191 2.45261 71.508 2.47531C71.24 2.45622 70.9724 2.51661 70.7387 2.64888C70.5293 2.82074 70.388 3.0612 70.34 3.32733L69.5912 3.22468C69.6328 2.94922 69.7485 2.69016 69.926 2.47505C70.1035 2.25994 70.3361 2.09685 70.5992 2.0031C70.9274 1.89433 71.2717 1.84195 71.6175 1.84819C71.8805 1.81697 72.1472 1.84302 72.3991 1.92454C72.6511 2.00607 72.8822 2.14113 73.0767 2.32039C73.1975 2.46905 73.278 2.64608 73.3107 2.83459C73.3427 3.06707 73.3552 3.30181 73.3481 3.53637V4.54705C73.3481 5.14058 73.3481 5.45786 73.3528 5.50079C73.3629 5.82017 73.4445 6.13327 73.5915 6.41722H72.7987C72.7107 6.24609 72.6576 6.05927 72.6424 5.86755M72.5806 4.17376C72.1782 4.31649 71.761 4.41353 71.3368 4.46305C71.1581 4.48402 70.9812 4.51707 70.807 4.56198C70.6317 4.60719 70.4783 4.71344 70.3746 4.86154C70.3022 4.96795 70.2646 5.09412 70.267 5.2227C70.2623 5.3303 70.2862 5.43721 70.3363 5.5326C70.3865 5.628 70.461 5.70847 70.5524 5.76584C70.7379 5.88082 70.9537 5.93771 71.172 5.92915C71.4339 5.95378 71.6971 5.89851 71.9267 5.77069C72.1564 5.64287 72.3416 5.44852 72.458 5.21336C72.5516 4.97212 72.5931 4.7139 72.5797 4.45559L72.5806 4.17376Z" fill="#3722D1"/>
<path d="M70.9952 6.66641C70.5839 6.68322 70.1784 6.56485 69.8412 6.32951C69.6727 6.2047 69.5377 6.04053 69.448 5.85142C69.3582 5.66232 69.3164 5.4541 69.3264 5.24512C69.3183 5.01826 69.3693 4.79317 69.4744 4.59183C69.5796 4.39048 69.7353 4.21977 69.9263 4.09633C70.1073 3.97528 70.3072 3.88507 70.5179 3.82941C70.7459 3.77274 70.9776 3.73221 71.2114 3.70811C71.6295 3.66869 72.0435 3.59345 72.4487 3.4832C72.4487 3.43654 72.4487 3.40481 72.4487 3.38988C72.4603 3.29227 72.4514 3.19332 72.4226 3.09933C72.3937 3.00534 72.3456 2.91836 72.2812 2.84394C72.0581 2.67776 71.7819 2.59817 71.5043 2.61997C71.2643 2.60233 71.0242 2.65383 70.8127 2.76835C70.6318 2.92215 70.5103 3.13401 70.4692 3.36748L70.4383 3.48599L69.4209 3.34602L69.4518 3.1995C69.4985 2.90112 69.6251 2.62082 69.8181 2.38811C70.0112 2.15539 70.2635 1.97887 70.5487 1.87713C70.8923 1.76343 71.2528 1.70854 71.6148 1.71475C71.8981 1.68328 72.1849 1.71363 72.4553 1.80371C72.7257 1.89379 72.9732 2.04143 73.1806 2.23641C73.3164 2.40312 73.4072 2.60164 73.4446 2.81315C73.4784 3.05424 73.4919 3.29773 73.4848 3.54106V4.55173C73.4848 5.28244 73.4848 5.46816 73.4848 5.49615C73.4939 5.79552 73.5696 6.08911 73.7066 6.35564L73.8246 6.56281H72.7089L72.6706 6.48815C72.6117 6.37389 72.5679 6.2525 72.5404 6.127C72.097 6.47268 71.5515 6.66263 70.9886 6.66733M71.5006 2.34281C71.8458 2.31962 72.1875 2.42355 72.4609 2.6349C72.5566 2.73431 72.6296 2.85315 72.675 2.98329C72.7203 3.11342 72.7371 3.25178 72.7239 3.38894C72.7239 3.41787 72.7239 3.48227 72.7192 3.58959V3.6829L72.6256 3.71557C72.1743 3.85383 71.7098 3.94423 71.2395 3.98527C71.0188 4.00742 70.7998 4.04484 70.5843 4.09725C70.403 4.1444 70.2311 4.22204 70.0761 4.32682C69.9225 4.4248 69.7975 4.5613 69.7136 4.72263C69.6297 4.88397 69.5897 5.06447 69.5978 5.24605C69.588 5.41173 69.6198 5.57723 69.6902 5.72761C69.7607 5.87799 69.8675 6.00852 70.0012 6.10741C70.2906 6.30567 70.637 6.404 70.9877 6.38738C71.5669 6.37657 72.1222 6.1556 72.5498 5.76585L72.7501 5.59508L72.7773 5.8573C72.7899 6.00461 72.8252 6.1491 72.8821 6.28565H73.3678C73.2756 6.03896 73.222 5.77961 73.2087 5.51667C73.2087 5.48588 73.2041 5.34684 73.2041 4.55267V3.54198C73.2123 3.3165 73.2007 3.09074 73.1694 2.86728C73.1408 2.7012 73.0702 2.54511 72.9644 2.41372C72.7822 2.25114 72.5674 2.12925 72.3341 2.05618C72.1009 1.98311 71.8547 1.96056 71.612 1.99005C71.2822 1.98366 70.9536 2.0332 70.6405 2.13656C70.4228 2.21162 70.2276 2.34042 70.0733 2.51094C69.919 2.68146 69.8105 2.88816 69.7579 3.11177L70.2314 3.1771C70.2975 2.92458 70.4444 2.70045 70.6498 2.53878C70.9061 2.38835 71.202 2.31873 71.4987 2.33906M71.1693 6.07194C70.9236 6.08131 70.6808 6.01624 70.4729 5.8853C70.3623 5.81555 70.2719 5.71809 70.2108 5.60265C70.1497 5.48721 70.12 5.35782 70.1247 5.22738C70.1229 5.07132 70.1686 4.91837 70.2558 4.78876C70.3762 4.61499 70.5547 4.48961 70.7593 4.43508C70.9412 4.38822 71.126 4.35362 71.3125 4.3315C71.7251 4.28341 72.131 4.1895 72.5227 4.05153L72.7099 3.97406V4.46121C72.7239 4.73995 72.6776 5.01845 72.5741 5.27777C72.4477 5.53732 72.245 5.75238 71.9931 5.8944C71.7412 6.03641 71.4519 6.09866 71.1637 6.07288M72.4328 4.37722C72.078 4.48258 71.7152 4.55935 71.348 4.60679C71.1761 4.62663 71.0057 4.65779 70.8379 4.70011C70.6949 4.73597 70.5691 4.8213 70.4832 4.94089C70.4257 5.02498 70.3957 5.1247 70.3971 5.22645C70.3917 5.31116 70.4097 5.39572 70.4489 5.47103C70.4882 5.54635 70.5473 5.60955 70.6199 5.65386C70.783 5.75384 70.9724 5.80291 71.1637 5.79478C71.3996 5.81983 71.6375 5.77204 71.8452 5.65787C72.0529 5.54371 72.2205 5.36869 72.3252 5.15646C72.4089 4.93365 72.4455 4.696 72.4328 4.45841V4.37722Z" fill="#3722D1"/>
<path d="M74.5171 8.13712V1.95176H75.2125V2.53222C75.3545 2.31923 75.548 2.14539 75.7753 2.0268C76.0025 1.90821 76.2561 1.84869 76.5126 1.85376C76.8764 1.83418 77.2368 1.93273 77.5397 2.13464C77.8426 2.33655 78.0717 2.63093 78.1926 2.97363C78.3426 3.34841 78.4176 3.74881 78.4135 4.15229C78.4539 4.55268 78.386 4.95655 78.2167 5.32189C78.0475 5.68723 77.7832 6.00068 77.4513 6.22963C77.1564 6.41968 76.8132 6.52197 76.462 6.52452C76.2341 6.53054 76.008 6.4824 75.8025 6.38406C75.5969 6.28573 75.4178 6.14001 75.2799 5.95899V8.13433L74.5171 8.13712ZM75.2069 4.21761C75.1925 4.6088 75.2796 4.99709 75.4596 5.34494C75.5475 5.51884 75.6835 5.66399 75.8515 5.76322C76.0195 5.86245 76.2126 5.9116 76.4077 5.90487C76.6089 5.91094 76.8075 5.85906 76.9798 5.75545C77.1521 5.65183 77.2908 5.50088 77.3793 5.32068C77.5633 4.96034 77.6522 4.55918 77.6376 4.15508C77.6496 3.76167 77.5607 3.37172 77.3793 3.02216C77.2944 2.84765 77.1611 2.70108 76.9952 2.59984C76.8293 2.49861 76.6378 2.44695 76.4433 2.45102C76.2419 2.44934 76.0443 2.50523 75.8738 2.61207C75.7033 2.71891 75.567 2.87224 75.4811 3.05389C75.2913 3.41262 75.1972 3.814 75.2079 4.21947" fill="#3722D1"/>
<path d="M75.4157 8.27526H74.3777V1.81364H75.3492V2.16081C75.662 1.86474 76.0795 1.70404 76.5107 1.71379C76.9022 1.69409 77.2897 1.80099 77.6154 2.01858C77.941 2.23618 78.1875 2.55283 78.3181 2.92139C78.4754 3.31325 78.5543 3.73207 78.5502 4.15417C78.5902 4.57816 78.5158 5.00512 78.3348 5.39085C78.1538 5.77658 77.8727 6.10708 77.5206 6.34816C77.2035 6.55209 76.8347 6.66183 76.4574 6.66453C76.0769 6.67326 75.7062 6.54429 75.4138 6.3015L75.4157 8.27526ZM74.6557 7.99529H75.1377V5.56146L75.3857 5.87223C75.5104 6.03725 75.6729 6.17001 75.8598 6.25933C76.0466 6.34865 76.2522 6.39191 76.4592 6.38548C76.7848 6.38281 77.1029 6.28799 77.3765 6.11205C77.6889 5.89602 77.9371 5.59995 78.0949 5.25504C78.2527 4.91014 78.3143 4.52917 78.2731 4.1523C78.2768 3.76678 78.2053 3.38422 78.0625 3.02591C77.9527 2.70799 77.7416 2.43461 77.4614 2.24743C77.1812 2.06025 76.8474 1.96953 76.5107 1.98909C76.2762 1.98356 76.0441 2.03762 75.8363 2.14619C75.6286 2.25475 75.4519 2.41427 75.323 2.60969L75.0713 2.95965V2.08802H74.6538V7.99529H74.6557ZM76.4078 6.03553C76.1882 6.04328 75.971 5.98838 75.7817 5.87729C75.5923 5.7662 75.4387 5.60354 75.3389 5.40841C75.1467 5.03985 75.0533 4.6281 75.0675 4.21296C75.0572 3.7845 75.1568 3.36052 75.3567 2.98111C75.454 2.77718 75.6076 2.60522 75.7997 2.48551C75.9917 2.3658 76.214 2.30333 76.4405 2.30546C76.6601 2.30064 76.8766 2.35852 77.0643 2.47228C77.252 2.58603 77.4032 2.75092 77.5 2.94752C77.6926 3.31737 77.7874 3.73012 77.7752 4.14669C77.7899 4.57425 77.6952 4.99851 77.5 5.37949C77.3998 5.5812 77.2436 5.74998 77.05 5.86577C76.8564 5.98157 76.6335 6.03953 76.4078 6.03274M76.4405 2.57983C76.2636 2.57817 76.0901 2.62748 75.9407 2.72184C75.7912 2.81621 75.6723 2.95161 75.5982 3.11176C75.4212 3.45007 75.3335 3.82777 75.3436 4.20922C75.3301 4.57689 75.4113 4.94188 75.5794 5.26936C75.6555 5.42124 75.774 5.54797 75.9206 5.63424C76.0672 5.7205 76.2358 5.76265 76.4059 5.75557C76.5822 5.7618 76.7564 5.71654 76.9072 5.62535C77.058 5.53416 77.1789 5.40102 77.2548 5.2423C77.4269 4.9027 77.5097 4.52506 77.4953 4.14483C77.5068 3.77501 77.4241 3.40834 77.2548 3.07909C77.1819 2.92603 77.0659 2.79738 76.921 2.70876C76.7761 2.62013 76.6086 2.57534 76.4387 2.57983" fill="#3722D1"/>
<path d="M79.2841 8.14557L79.1998 7.43538C79.3418 7.47566 79.4884 7.4976 79.636 7.5007C79.7638 7.5112 79.8921 7.48719 80.0074 7.4312C80.1226 7.3752 80.2207 7.28929 80.2912 7.18249C80.3853 7.00102 80.4636 6.81181 80.5251 6.61695C80.5476 6.55443 80.5691 6.49376 80.5916 6.4303L78.8928 1.95086H79.709L80.6449 4.5424C80.7722 4.89796 80.8817 5.24325 80.9697 5.57641C81.0569 5.23125 81.1619 4.8908 81.2842 4.5564L82.2408 1.94992H83.0008L81.2973 6.49844C81.1735 6.84428 81.031 7.18322 80.8705 7.51377C80.7786 7.72651 80.6269 7.90822 80.4337 8.03703C80.2406 8.16584 80.0143 8.23626 79.782 8.23982C79.6129 8.23624 79.4456 8.2047 79.2869 8.14649" fill="#3722D1"/>
<path d="M79.7763 8.37792C79.5928 8.37413 79.4113 8.34007 79.239 8.27713L79.1567 8.24821L79.0378 7.24873L79.2344 7.30099C79.3648 7.338 79.4994 7.35868 79.635 7.36258C79.7387 7.37199 79.8431 7.35339 79.9371 7.30872C80.0311 7.26406 80.1113 7.19498 80.1694 7.10874C80.2593 6.93632 80.3332 6.75609 80.3903 6.57028L80.4389 6.43403L78.6877 1.81272H79.8025L80.7693 4.49667C80.8386 4.68891 80.9022 4.88022 80.9565 5.0678C81.0145 4.88115 81.0763 4.6945 81.1437 4.50786L82.1349 1.8118H83.1916L81.4179 6.54601C81.2925 6.89755 81.1476 7.24182 80.9836 7.57722C80.8802 7.8121 80.7111 8.01225 80.4964 8.15361C80.2817 8.29498 80.0307 8.37157 79.7735 8.37419M79.4094 8.0373C79.5278 8.07465 79.6511 8.09476 79.7753 8.09702C79.9827 8.09363 80.1846 8.03002 80.3563 7.914C80.5281 7.79798 80.6621 7.63458 80.7422 7.44377C80.8994 7.11879 81.0393 6.7858 81.1615 6.44616L82.7947 2.08616H82.3267L81.402 4.60586C81.2853 4.93598 81.1854 5.27172 81.1025 5.61186L80.9696 6.13166L80.8329 5.61186C80.7468 5.28336 80.6392 4.93995 80.5138 4.58999L79.6134 2.0899H79.0949L80.7403 6.43309L80.7225 6.48162C80.701 6.54041 80.6785 6.60013 80.657 6.66173C80.5942 6.86755 80.5111 7.06668 80.409 7.25619C80.327 7.38298 80.2123 7.48541 80.0769 7.55274C79.9416 7.62006 79.7905 7.6498 79.6396 7.63882C79.5473 7.63802 79.4553 7.62927 79.3645 7.61269L79.4094 8.0373Z" fill="#3722D1"/>
<path d="M89.644 4.00951V3.28347L92.2646 3.2788V5.56706C91.55 6.17838 90.6434 6.52108 89.7019 6.53574C89.1414 6.5431 88.5875 6.41503 88.0874 6.16245C87.5871 5.91599 87.1793 5.51593 86.9241 5.02112C86.6636 4.50936 86.5316 3.94222 86.5394 3.36839C86.5334 2.805 86.6536 2.24737 86.8913 1.73619C87.1172 1.22326 87.5063 0.798863 87.9985 0.528611C88.505 0.266078 89.0694 0.134205 89.6402 0.145048C90.0249 0.111834 90.4121 0.168996 90.7707 0.311938C91.1292 0.45488 91.4492 0.679627 91.7049 0.96815C91.9285 1.26962 92.0878 1.6136 92.1729 1.97883L91.4316 2.17947C91.3765 1.92527 91.2633 1.68715 91.101 1.48356C90.9387 1.27997 90.7316 1.11639 90.4957 1.00549C90.226 0.897112 89.9375 0.843175 89.6468 0.846827C89.3459 0.825924 89.0441 0.870336 88.7621 0.976993C88.4801 1.08365 88.2248 1.25002 88.0135 1.46462C87.575 1.97976 87.3501 2.64226 87.3846 3.31706C87.3298 3.75363 87.4069 4.19657 87.606 4.58923C87.8051 4.98188 88.117 5.3064 88.5021 5.52132C88.8603 5.70097 89.2561 5.79371 89.657 5.79196C89.9834 5.78802 90.3067 5.72933 90.6136 5.61838C90.9253 5.52182 91.2142 5.36307 91.4625 5.15177V4.00951H89.644Z" fill="#3722D1"/>
<path d="M89.7012 6.67013C89.119 6.67793 88.5434 6.54606 88.023 6.28564C87.4977 6.02497 87.0692 5.6043 86.7997 5.08458C86.5299 4.55358 86.3925 3.96552 86.3992 3.37027C86.3932 2.78615 86.5182 2.20808 86.7651 1.67834C87.005 1.13952 87.4148 0.693545 87.9323 0.408225C88.4594 0.13544 89.0465 -0.00184157 89.6404 0.00881349C90.0461 -0.0244039 90.454 0.0375492 90.8313 0.189716C91.2087 0.341882 91.5451 0.580031 91.8136 0.885101C92.0501 1.20142 92.2186 1.56294 92.3087 1.9471L92.3434 2.07962L91.3372 2.35213L91.2989 2.2224C91.2495 1.98747 91.1462 1.76713 90.9972 1.57866C90.8481 1.3902 90.6573 1.23874 90.4397 1.13615C90.1869 1.03482 89.9165 0.984376 89.6441 0.987756C89.3629 0.967776 89.0807 1.00854 88.8168 1.10727C88.5529 1.206 88.3134 1.36037 88.1148 1.55983C87.7009 2.05059 87.4888 2.67949 87.5213 3.31988C87.4656 3.73045 87.535 4.14825 87.7204 4.51902C87.9059 4.8898 88.1988 5.19642 88.5612 5.39908C88.8706 5.55291 89.2088 5.64067 89.5542 5.65674C89.8995 5.67281 90.2445 5.61684 90.567 5.49241C90.8412 5.40589 91.0974 5.27056 91.3232 5.09299V4.14857H89.5056V3.14723L92.4014 3.14256V5.63519L92.3499 5.67625C91.6105 6.30644 90.6738 6.65987 89.7012 6.67572M89.6413 0.289707C89.0932 0.279659 88.5513 0.405699 88.0642 0.656467C87.5991 0.9135 87.2312 1.31536 87.0169 1.80059C86.7887 2.29362 86.6733 2.83105 86.679 3.374C86.6727 3.92476 86.7994 4.46893 87.0487 4.96047C87.2917 5.42888 87.6783 5.80777 88.1522 6.04207C88.6331 6.28272 89.165 6.40436 89.703 6.3967C90.5896 6.38122 91.4443 6.06488 92.1262 5.49987V3.41319H89.7863V3.86114H91.6021V5.20777L91.5563 5.24884C91.2938 5.47242 90.9889 5.64095 90.6596 5.74437C90.3027 5.88089 89.9213 5.9421 89.5395 5.92411C89.1577 5.90611 88.7838 5.80932 88.4414 5.63985C88.0333 5.41354 87.7019 5.07132 87.4894 4.65671C87.2769 4.24209 87.1929 3.77383 87.2481 3.31148C87.2144 2.60221 87.4523 1.90669 87.9135 1.36571C88.1379 1.13694 88.4092 0.959224 88.7089 0.844703C89.0085 0.730182 89.3294 0.681563 89.6497 0.702191C89.959 0.699179 90.2659 0.756897 90.5529 0.872043C90.7884 0.979174 90.9978 1.13605 91.1665 1.33183C91.3352 1.52761 91.4593 1.75761 91.53 2.0059L92.0083 1.87619C91.9259 1.57722 91.7878 1.2964 91.6012 1.04842C91.357 0.777458 91.0531 0.566776 90.7133 0.433002C90.3735 0.299229 90.0071 0.246021 89.6432 0.277575" fill="#3722D1"/>
<path d="M93.3429 8.14557L93.2587 7.43538C93.4006 7.47567 93.5472 7.49761 93.6948 7.5007C93.8226 7.5112 93.9509 7.48719 94.0662 7.4312C94.1815 7.3752 94.2795 7.28929 94.35 7.18249C94.4441 7.00099 94.5223 6.81178 94.584 6.61695C94.6064 6.55443 94.628 6.49376 94.6504 6.4303L92.9517 1.95086H93.7678L94.7038 4.5424C94.832 4.89796 94.9406 5.24325 95.0285 5.57641C95.1157 5.23124 95.2207 4.89078 95.343 4.5564L96.2996 1.94992H97.0596L95.3562 6.49844C95.2323 6.84429 95.0898 7.18323 94.9294 7.51377C94.8374 7.72651 94.6857 7.90822 94.4926 8.03703C94.2995 8.16584 94.0731 8.23626 93.8408 8.23982C93.6717 8.23634 93.5044 8.2048 93.3457 8.14649" fill="#3722D1"/>
<path d="M93.8324 8.37792C93.649 8.37415 93.4674 8.34009 93.2952 8.27713L93.2128 8.24821L93.094 7.24873L93.2905 7.30099C93.4209 7.338 93.5555 7.35868 93.6911 7.36258C93.7948 7.37199 93.8992 7.35339 93.9932 7.30872C94.0872 7.26406 94.1675 7.19498 94.2255 7.10874C94.3155 6.93635 94.3894 6.75611 94.4464 6.57028L94.4951 6.43403L92.7439 1.81272H93.8587L94.8255 4.49667C94.8947 4.68891 94.9584 4.88022 95.0127 5.0678C95.0707 4.88115 95.1325 4.6945 95.1999 4.50786L96.191 1.8118H97.2477L95.4741 6.54601C95.3487 6.89755 95.2037 7.24182 95.0398 7.57722C94.9364 7.8121 94.7672 8.01225 94.5526 8.15361C94.3379 8.29498 94.0869 8.37157 93.8296 8.37419M93.4637 8.0373C93.5822 8.07467 93.7054 8.09478 93.8296 8.09702C94.037 8.09363 94.2389 8.03002 94.4106 7.914C94.5823 7.79798 94.7164 7.63458 94.7964 7.44377C94.9536 7.11877 95.0936 6.78578 95.2157 6.44616L96.849 2.08616H96.381L95.4563 4.60586C95.3357 4.93606 95.2321 5.27213 95.1456 5.61279L95.0127 6.1326L94.876 5.61279C94.7899 5.2843 94.6823 4.94088 94.5568 4.59092L93.6565 2.09083H93.138L94.7834 6.43403L94.7656 6.48256C94.7441 6.54135 94.7216 6.60107 94.7001 6.66267C94.6373 6.86849 94.5542 7.06761 94.452 7.25712C94.3701 7.3839 94.2554 7.48634 94.12 7.55366C93.9846 7.62099 93.8335 7.65073 93.6826 7.63974C93.5903 7.63901 93.4983 7.63027 93.4075 7.61361L93.4637 8.0373Z" fill="#3722D1"/>
<path d="M97.7026 6.4247V1.95271H98.3831V2.57983C98.5244 2.34896 98.7249 2.15993 98.964 2.03228C99.2031 1.90463 99.4721 1.843 99.7431 1.85379C100.012 1.82093 100.284 1.88053 100.514 2.02273C100.744 2.16492 100.919 2.38121 101.009 2.63583C101.153 2.39746 101.356 2.20015 101.598 2.06311C101.841 1.92607 102.115 1.85395 102.394 1.85379C103.32 1.85379 103.783 2.35461 103.783 3.35627V6.42562H103.023V3.60918C103.023 3.10089 102.91 2.77488 102.685 2.63116C102.546 2.5482 102.387 2.50613 102.225 2.50984C101.494 2.50984 101.128 2.9494 101.126 3.82849V6.4247H100.366V3.51958C100.366 2.84518 100.102 2.50829 99.5736 2.50891C99.359 2.49299 99.1452 2.54936 98.9665 2.66898C98.7878 2.78861 98.6546 2.96458 98.5881 3.1687C98.492 3.4701 98.4492 3.78589 98.4617 4.10192V6.42189H97.7036L97.7026 6.4247Z" fill="#3722D1"/>
<path d="M103.923 6.56187H102.885V3.6073C102.885 3.15189 102.791 2.86072 102.612 2.74594C102.495 2.67656 102.362 2.64191 102.226 2.64609C101.571 2.64609 101.267 3.01937 101.267 3.82753V6.5628H100.229V3.51957C100.229 2.73753 99.8545 2.64795 99.5737 2.64795C99.3875 2.63233 99.2015 2.68012 99.0461 2.78352C98.8907 2.88692 98.7752 3.03982 98.7182 3.21722C98.6281 3.50378 98.5882 3.80369 98.6002 4.10377V6.5628H97.5623V1.81364H98.5169V2.18694C98.6781 2.02995 98.8695 1.90717 99.0796 1.826C99.2897 1.74484 99.5142 1.70699 99.7393 1.71473C99.9954 1.69003 100.253 1.7383 100.483 1.85394C100.712 1.96958 100.905 2.14784 101.037 2.36799C101.197 2.16298 101.403 1.99746 101.637 1.8842C101.872 1.77094 102.13 1.71296 102.391 1.71473C103.39 1.71473 103.919 2.28212 103.919 3.35439L103.923 6.56187ZM103.163 6.2819H103.645V3.35066C103.645 2.41744 103.248 1.98723 102.395 1.98723C102.138 1.98698 101.887 2.05329 101.664 2.17962C101.441 2.30595 101.255 2.48794 101.125 2.70768L100.971 2.93258L100.877 2.67501C100.796 2.44785 100.638 2.2555 100.432 2.13001C100.225 2.00452 99.9811 1.95346 99.7412 1.98536C99.4933 1.97373 99.2469 2.02907 99.0279 2.14553C98.809 2.26199 98.6256 2.43525 98.4973 2.64701L98.2418 3.04177V2.08429H97.8384V6.28377H98.3204V4.10283C98.3066 3.76884 98.3528 3.43508 98.457 3.11735C98.5328 2.88682 98.6836 2.68815 98.8856 2.55289C99.0875 2.41762 99.3291 2.35352 99.5718 2.37078C99.9967 2.37078 100.508 2.57049 100.508 3.51957V6.2875H100.99V3.8294C100.99 2.62461 101.663 2.37172 102.226 2.37172C102.414 2.3683 102.599 2.41779 102.76 2.5145C103.031 2.68808 103.163 3.0455 103.163 3.61009V6.2875V6.2819Z" fill="#3722D1"/>
</svg>
