<svg width="184" height="99" viewBox="0 0 184 99" fill="none" xmlns="http://www.w3.org/2000/svg">
<path d="M54.0085 59.0395V67.5499H47.0813V74.0526C47.0475 76.4437 46.0664 78.7277 44.3467 80.4186C42.627 82.1096 40.3043 83.0743 37.8725 83.1075H29.011V74.5971H38.4346V39.6356H47.0813V59.0412H54.0068L54.0085 59.0395Z" fill="white"/>
<path d="M112.999 67.521H53.5471V59.0074H60.7852V27.0045H69.5475V41.4047C70.7153 41.0569 71.9299 40.8848 73.15 40.8942H91.293C94.5038 40.9021 97.5862 42.1344 99.8918 44.3317C102.197 46.529 103.546 49.52 103.654 52.6754C101.104 50.557 97.8527 49.4309 94.5152 49.5103C93.9944 49.5103 93.5464 49.5444 93.0272 49.5785C98.8435 50.1248 103.38 53.5272 103.656 57.6125V59.009H113.126C113.126 59.009 114.057 63.9364 120.753 67.5389L112.999 67.521ZM73.1434 49.5103C72.2807 49.5143 71.447 49.8166 70.7883 50.3644C70.1296 50.9122 69.688 51.6705 69.5409 52.5063V59.009H94.9203V53.0851C94.8972 52.1437 94.5066 51.2471 93.8294 50.5813C93.1522 49.9154 92.2404 49.5313 91.2831 49.5086L73.1434 49.5103Z" fill="white"/>
<path d="M146.097 59.0054H157.583V59.4817C157.34 63.1232 153.98 66.3258 149.827 67.5157L132.266 67.5596C132.266 67.5596 144.024 62.629 146.097 59.0054ZM167.901 58.4608C167.867 60.8522 166.886 63.1364 165.166 64.8274C163.446 66.5185 161.122 67.4829 158.69 67.5157H151.004C153.009 67.1369 154.881 66.2574 156.44 64.9618C157.413 64.1183 158.173 63.0641 158.661 61.8823C159.149 60.7006 159.351 59.4235 159.251 58.1519V26.219H167.906V58.4608H167.901Z" fill="white"/>
<path d="M183.516 26.2207H174.824V67.5174H183.516V26.2207Z" fill="white"/>
<path d="M5.58243 29.8721C6.40942 30.6166 7.48999 31.0296 8.61123 31.0296C9.73246 31.0296 10.813 30.6166 11.64 29.8721C12.0797 29.4987 12.4272 29.0318 12.6563 28.5068C12.8854 27.9819 12.9902 27.4126 12.9626 26.8419C12.9405 25.7278 12.4748 24.6666 11.6657 23.8864C10.8566 23.1062 9.76847 22.6691 8.63519 22.6691C7.50191 22.6691 6.41385 23.1062 5.60471 23.8864C4.79557 24.6666 4.32991 25.7278 4.30777 26.8419C4.26953 27.4099 4.36528 27.9789 4.58753 28.5046C4.80979 29.0302 5.15253 29.4982 5.58904 29.8721" fill="white"/>
<path d="M16.9322 39.6147H12.2931C9.04439 39.6305 5.9328 40.9041 3.63235 43.1598C1.33191 45.4154 0.0278494 48.4714 0.00266767 51.6658V55.4796C-0.0312379 57.0337 0.258368 58.5782 0.85371 60.0182C1.44905 61.4583 2.33755 62.7634 3.46461 63.8534C4.54779 64.9857 5.84984 65.8942 7.29452 66.5257C8.7392 67.1571 10.2975 67.4987 11.8781 67.5306C9.68937 65.0687 8.53814 61.8785 8.6592 58.6106C8.6592 58.3408 8.67407 58.0433 8.69887 57.736C7.78968 56.6771 7.25962 55.3537 7.19028 53.9696C7.12094 52.5854 7.51616 51.2172 8.31511 50.0756C9.11407 48.9339 10.2725 48.0821 11.612 47.6513C12.9515 47.2204 14.3979 47.2344 15.7286 47.6911L16.9338 40.2927V48.2486C17.7244 48.7176 18.4031 49.3485 18.9235 50.0984C19.4439 50.8483 19.7939 51.6997 19.9497 52.5946C20.1054 53.4895 20.0633 54.4068 19.8262 55.2843C19.589 56.1617 19.1624 56.9786 18.5754 57.6794C17.9884 58.3802 17.2547 58.9484 16.4244 59.3454C15.594 59.7423 14.6864 59.9587 13.7633 59.9798C12.8402 60.0009 11.9234 59.8262 11.0752 59.4676C10.2269 59.1091 9.46718 58.5751 8.84767 57.9019C9.11971 60.2531 10.0097 62.4942 11.4301 64.4045C12.0559 65.2783 12.8649 66.01 13.8026 66.5504C14.7403 67.0908 15.7849 67.4272 16.866 67.5371H25.6284V47.5789L16.9322 39.6147Z" fill="white"/>
<path d="M15.0344 29.8721C15.8614 30.6166 16.9419 31.0296 18.0632 31.0296C19.1844 31.0296 20.265 30.6166 21.092 29.8721C21.5316 29.4987 21.8791 29.0318 22.1083 28.5068C22.3374 27.9819 22.4421 27.4126 22.4146 26.8419C22.3924 25.7278 21.9268 24.6666 21.1176 23.8864C20.3085 23.1062 19.2204 22.6691 18.0871 22.6691C16.9539 22.6691 15.8658 23.1062 15.0567 23.8864C14.2475 24.6666 13.7819 25.7278 13.7597 26.8419C13.722 27.4099 13.818 27.9787 14.0402 28.5043C14.2624 29.0298 14.6049 29.4979 15.041 29.8721" fill="white"/>
<path d="M8.69727 57.7408L8.84275 57.9034C8.80968 57.6546 8.78159 57.4027 8.75844 57.1458C8.73199 57.3458 8.71215 57.5425 8.69727 57.7376" fill="white"/>
<path d="M125.836 26.6288C125.886 27.4306 126.176 28.1999 126.671 28.8396C127.165 29.4793 127.84 29.9607 128.613 30.2229C129.385 30.4852 130.219 30.5165 131.009 30.3131C131.799 30.1096 132.51 29.6804 133.053 29.0797C133.595 28.479 133.944 27.7338 134.056 26.9381C134.168 26.1424 134.038 25.3319 133.681 24.6091C133.325 23.8862 132.759 23.2834 132.055 22.8767C131.35 22.47 130.539 22.2777 129.723 22.3241C128.628 22.389 127.603 22.8787 126.874 23.6858C126.146 24.4929 125.772 25.5514 125.836 26.6288Z" fill="white"/>
<path d="M128.265 39.2392C124.593 39.6385 121.2 41.3557 118.735 44.0619C116.271 46.7681 114.908 50.2732 114.908 53.9059C114.908 57.5386 116.271 61.0437 118.735 63.7499C121.2 66.4562 124.593 68.1734 128.265 68.5727C119.643 70.0358 111.592 62.3788 111.789 53.9075C111.599 45.4378 119.647 37.7842 128.265 39.2392Z" fill="white"/>
<path d="M140.961 55.561C141.928 52.0521 141.545 48.3154 139.883 45.0675C138.222 41.8196 135.399 39.2893 131.957 37.9616C128.515 36.634 124.696 36.6025 121.231 37.8734C117.767 39.1442 114.902 41.6278 113.186 44.8479C114.95 36.422 125.14 31.8426 133.089 35.1232C141.174 38.0412 145.479 48.2032 140.956 55.561" fill="white"/>
<path d="M133.094 62.8355C136.714 62.1116 139.935 60.1004 142.141 57.1871C144.346 54.2738 145.382 50.6629 145.049 47.0457C144.716 43.4285 143.038 40.0591 140.336 37.5824C137.635 35.1056 134.099 33.6957 130.406 33.6223C138.858 31.4017 147.58 38.3156 148.159 46.7691C149.123 55.1884 141.812 63.5232 133.094 62.8355Z" fill="white"/>
<path d="M120.657 43.8801C119.083 47.1663 118.798 50.9077 119.855 54.3881C120.912 57.8684 123.237 60.8431 126.385 62.7428C129.534 64.6425 133.284 65.3336 136.918 64.6839C140.553 64.0342 143.816 62.0893 146.082 59.2215C142.84 67.2117 131.993 69.9509 124.755 65.3584C117.315 61.0878 114.892 50.3406 120.66 43.8786" fill="white"/>
<path d="M54.2233 98.2572C54.2679 97.8833 54.2861 97.1501 54.3341 96.794C54.4134 96.3063 54.5094 95.8186 54.6003 95.3309C54.7567 94.6869 54.9527 94.0529 55.1872 93.4322C55.3161 93.1428 55.4153 92.7819 55.5592 92.5039C55.6336 92.3414 56.037 91.5285 56.1097 91.3741L56.2387 91.1579L56.4949 90.7255C57.3637 89.2757 58.4097 87.9358 59.6097 86.736C61.0709 85.3028 62.6984 84.0435 64.4587 82.984C66.2372 81.9363 68.1209 81.0718 70.0798 80.4041C80.1003 76.9902 91.0119 78.0046 101.213 80.0627C113.923 82.4882 126.946 85.0779 139.899 85.4063C147.478 85.5948 155.638 85.7411 162.433 82.0378C164.692 80.7736 166.562 78.9345 167.848 76.7139C166.937 79.2306 165.295 81.4293 163.126 83.0377C155.739 88.5162 144.806 88.8055 135.89 88.8641C126.554 88.6944 117.255 87.6636 108.115 85.7851C98.0466 83.9091 87.7715 81.0885 77.4699 82.0948C74.9514 82.3118 72.46 82.767 70.0302 83.4538C62.774 85.4713 55.8518 90.6653 54.2217 98.2474" fill="white"/>
<path d="M15.6279 21.2023C14.8641 13.6267 23.0081 9.39831 29.5402 8.28311C32.5334 7.78804 35.5764 7.6494 38.6034 7.87019C48.8355 8.43755 59.0494 11.6661 69.1161 12.1847C74.891 12.4155 83.169 12.822 86.7747 7.50929C85.1049 12.6366 79.0589 14.4216 74.1884 15.1385C69.1292 15.8151 63.9999 15.8107 58.9419 15.1255C51.2889 14.1989 43.5665 12.2611 35.8804 11.684C32.374 11.342 28.8341 11.5855 25.4103 12.4042C20.7398 13.56 16.5157 16.192 15.6295 21.2023" fill="white"/>
<path d="M94.6691 11.8989V2.41475H91.0632V1.14999H99.7346V2.41475H96.1123V11.9021L94.6691 11.8989Z" fill="white"/>
<path d="M96.357 12.1362H94.421V2.64884H90.8169V0.90451H99.976V2.64884H96.3553V12.1362H96.357ZM94.9137 11.6485H95.866V2.16114H99.4883V1.38083H91.3079V2.16114H94.917L94.9137 11.6485Z" fill="white"/>
<path d="M101.024 11.8968V1.14794H102.367V5.00078C102.657 4.65893 103.021 4.38547 103.433 4.2006C103.845 4.01574 104.293 3.92417 104.746 3.9327C105.239 3.87257 105.739 3.96311 106.178 4.19199C106.617 4.42088 106.973 4.77703 107.199 5.2121C107.414 5.76832 107.51 6.36216 107.48 6.95644V11.8952H106.138V6.95157C106.138 5.69223 105.58 5.062 104.463 5.06091C104.069 5.05977 103.682 5.16432 103.344 5.36329C103.008 5.55075 102.745 5.84149 102.593 6.19076C102.422 6.651 102.345 7.13983 102.365 7.62946V11.892L101.024 11.8968Z" fill="white"/>
<path d="M107.727 12.1362H105.893V6.95684C105.893 5.83189 105.44 5.30843 104.463 5.30843C104.114 5.30959 103.772 5.40217 103.471 5.57666C103.18 5.73641 102.952 5.98776 102.823 6.29034C102.666 6.72116 102.595 7.17762 102.615 7.63476V12.1379H100.776V0.90451H102.61V4.42731C103.208 3.93866 103.965 3.67787 104.742 3.69252C105.283 3.63118 105.829 3.73458 106.308 3.9887C106.787 4.24282 107.175 4.63542 107.419 5.11336C107.649 5.70102 107.752 6.32944 107.722 6.95848V12.1379L107.727 12.1362ZM106.384 11.6485H107.236V6.95198C107.263 6.39305 107.174 5.83452 106.976 5.31007C106.769 4.91721 106.444 4.5969 106.044 4.39315C105.645 4.1894 105.191 4.11217 104.746 4.17209C104.328 4.16226 103.913 4.24583 103.533 4.41647C103.152 4.58712 102.816 4.8404 102.55 5.15724L102.12 5.64495V1.38733H101.269V11.6567H102.12V7.6364C102.099 7.11431 102.184 6.59329 102.368 6.10338C102.539 5.70668 102.839 5.37644 103.22 5.16374C103.596 4.94403 104.025 4.82834 104.463 4.82887C105.339 4.82887 106.384 5.1979 106.384 6.96012V11.655V11.6485Z" fill="white"/>
<path d="M114.93 9.38373L116.315 9.55605C116.153 10.3242 115.709 11.0064 115.066 11.4715C114.424 11.9367 113.629 12.1519 112.835 12.0758C112.309 12.1057 111.782 12.0202 111.293 11.8257C110.804 11.6312 110.365 11.3324 110.008 10.9509C109.338 10.1383 108.998 9.11012 109.054 8.06533C109.004 7.01414 109.33 5.97894 109.975 5.13913C110.311 4.73821 110.739 4.4204 111.222 4.2112C111.706 4.002 112.233 3.90723 112.761 3.93452C113.276 3.90804 113.79 4.00208 114.261 4.20894C114.732 4.4158 115.147 4.72957 115.471 5.12449C116.098 5.94719 116.414 6.95861 116.367 7.98565C116.367 8.06694 116.367 8.18562 116.358 8.34494H110.448C110.458 9.01237 110.682 9.65965 111.088 10.1949C111.346 10.5023 111.685 10.7339 112.069 10.8646C112.452 10.9954 112.864 11.0202 113.261 10.9363C113.657 10.8525 114.023 10.6632 114.317 10.3891C114.612 10.1151 114.824 9.76675 114.932 9.38211M110.522 7.246H114.95C114.933 6.71518 114.754 6.20156 114.437 5.7715C114.24 5.52833 113.988 5.33341 113.701 5.20199C113.414 5.07056 113.1 5.0062 112.784 5.01396C112.486 5.00474 112.189 5.05794 111.913 5.17004C111.637 5.28214 111.388 5.45058 111.184 5.66422C110.777 6.09887 110.542 6.66235 110.522 7.2525" fill="white"/>
<path d="M112.832 12.3167C112.27 12.3461 111.709 12.253 111.189 12.0442C110.668 11.8354 110.201 11.516 109.821 11.1088C109.112 10.2525 108.751 9.16829 108.808 8.06557C108.758 6.95913 109.103 5.87037 109.781 4.98656C110.141 4.5573 110.597 4.21627 111.113 3.99052C111.63 3.76477 112.193 3.66053 112.757 3.68605C113.31 3.65974 113.861 3.76203 114.365 3.98464C114.87 4.20724 115.313 4.54386 115.661 4.96707C116.32 5.83312 116.655 6.89668 116.61 7.97781C116.61 8.06071 116.61 8.18264 116.601 8.3452L116.593 8.57766H110.712C110.757 9.1077 110.952 9.61472 111.276 10.0408C111.507 10.3146 111.811 10.5207 112.153 10.6364C112.496 10.7521 112.864 10.773 113.217 10.6969C113.571 10.6207 113.896 10.4503 114.158 10.2044C114.42 9.95853 114.608 9.64658 114.702 9.3027L114.768 9.12226L116.626 9.35147L116.553 9.61972C116.378 10.4395 115.902 11.1672 115.216 11.6642C114.53 12.1613 113.682 12.3929 112.833 12.3151M112.759 4.17212C112.268 4.14455 111.776 4.23131 111.325 4.42536C110.874 4.61941 110.476 4.91527 110.163 5.28895C109.557 6.08683 109.251 7.06723 109.299 8.06232C109.244 9.04793 109.562 10.0186 110.19 10.7886C110.523 11.1458 110.934 11.425 111.392 11.6053C111.85 11.7857 112.343 11.8627 112.835 11.8306C113.526 11.9024 114.22 11.7345 114.798 11.356C115.376 10.9774 115.801 10.4121 116 9.75788L115.092 9.6441C114.939 10.1093 114.638 10.5137 114.233 10.7975C113.828 11.0812 113.341 11.2291 112.843 11.2194C112.471 11.234 112.1 11.1619 111.761 11.0087C111.423 10.8556 111.125 10.6259 110.894 10.3383C110.459 9.76307 110.217 9.06852 110.203 8.3517L110.188 8.09648H116.12C116.12 8.05096 116.12 8.01193 116.12 7.97942C116.165 7.00809 115.868 6.05124 115.28 5.26945C114.979 4.90314 114.593 4.61268 114.155 4.42214C113.717 4.23159 113.239 4.14643 112.761 4.17373M115.219 7.49171H110.259L110.279 7.23488C110.304 6.59018 110.559 5.97471 111 5.49704C111.228 5.26061 111.505 5.07423 111.811 4.95012C112.118 4.82602 112.448 4.76697 112.779 4.77686C113.132 4.76902 113.483 4.84136 113.803 4.98825C114.123 5.13514 114.405 5.35261 114.626 5.62382C114.976 6.09113 115.174 6.65158 115.194 7.23163L115.219 7.49171ZM110.797 7.00401H114.674C114.633 6.61316 114.486 6.24026 114.249 5.92459C114.074 5.70721 113.85 5.53306 113.595 5.41617C113.34 5.29929 113.06 5.24292 112.779 5.25156C112.514 5.24143 112.251 5.28678 112.005 5.3846C111.76 5.48242 111.538 5.63047 111.355 5.81892C111.049 6.14732 110.854 6.5606 110.795 7.0024" fill="white"/>
<path d="M117.972 11.8969V4.10676H119.174V5.28862C119.683 4.38584 120.255 3.93498 120.888 3.93607C121.381 3.94775 121.861 4.09471 122.274 4.36037L121.809 5.58287C121.511 5.40089 121.168 5.30251 120.817 5.29837C120.519 5.2867 120.226 5.37922 119.991 5.55955C119.755 5.73988 119.593 5.99637 119.531 6.28353C119.377 6.78297 119.302 7.30274 119.308 7.82465V11.9002L117.972 11.8969Z" fill="white"/>
<path d="M119.562 12.1359H117.727V3.86293H119.42V4.49205C119.587 4.25708 119.806 4.06282 120.061 3.92417C120.316 3.78552 120.6 3.70619 120.891 3.69224C121.429 3.70436 121.952 3.86308 122.403 4.15067L122.568 4.25471L121.931 5.93403L121.678 5.78608C121.42 5.6265 121.122 5.53937 120.817 5.53411C120.572 5.52234 120.33 5.59808 120.137 5.74741C119.944 5.89675 119.812 6.10964 119.766 6.34694C119.619 6.82114 119.548 7.31456 119.554 7.81003V12.1262L119.562 12.1359ZM118.22 11.6482H119.071V7.8198C119.066 7.27311 119.145 6.72876 119.306 6.2055C119.383 5.86932 119.576 5.56998 119.853 5.359C120.13 5.14803 120.473 5.03864 120.824 5.04965C121.119 5.05162 121.41 5.11536 121.678 5.23661L121.973 4.4628C121.642 4.28009 121.271 4.18067 120.891 4.17342C120.356 4.17342 119.85 4.58636 119.389 5.40244L118.929 6.21527V4.34249H118.216V11.658L118.22 11.6482Z" fill="white"/>
<path d="M128.227 10.9347C127.429 11.6528 126.391 12.0577 125.309 12.0726C124.636 12.1026 123.972 11.9134 123.419 11.5346C123.153 11.3397 122.939 11.0831 122.798 10.7876C122.656 10.4921 122.591 10.1668 122.608 9.8406C122.594 9.48481 122.675 9.13169 122.842 8.81591C123.009 8.50012 123.257 8.2325 123.562 8.03936C123.857 7.84243 124.185 7.69623 124.53 7.60695C124.924 7.51189 125.323 7.44344 125.726 7.40211C126.538 7.33317 127.341 7.18004 128.121 6.94529C128.121 6.76646 128.13 6.65105 128.13 6.60391C128.152 6.39855 128.13 6.1908 128.064 5.99456C127.999 5.79832 127.891 5.61811 127.749 5.46595C127.311 5.13733 126.766 4.97772 126.217 5.01727C125.743 4.98402 125.27 5.08921 124.858 5.31962C124.488 5.61901 124.238 6.03789 124.153 6.50149L122.831 6.32266C122.904 5.84282 123.109 5.39154 123.422 5.01682C123.736 4.6421 124.147 4.35799 124.611 4.19468C125.191 4.0052 125.799 3.91395 126.41 3.92482C126.875 3.87045 127.346 3.91581 127.791 4.05783C128.236 4.19985 128.644 4.43512 128.988 4.7474C129.201 5.00637 129.343 5.31474 129.401 5.64314C129.457 6.04812 129.48 6.45703 129.467 6.86563V8.62624C129.467 9.66016 129.467 10.2129 129.475 10.2876C129.493 10.844 129.637 11.3894 129.897 11.8841H128.497C128.341 11.586 128.247 11.2605 128.22 10.9265M128.111 7.97596C127.4 8.2246 126.663 8.39365 125.914 8.47991C125.599 8.51644 125.286 8.57402 124.978 8.65224C124.669 8.731 124.398 8.91609 124.215 9.17407C124.087 9.35944 124.02 9.57923 124.024 9.80322C124.016 9.99065 124.058 10.1769 124.147 10.3431C124.235 10.5092 124.367 10.6494 124.529 10.7494C124.856 10.9497 125.238 11.0488 125.623 11.0339C126.086 11.0768 126.551 10.9805 126.956 10.7578C127.362 10.5352 127.689 10.1966 127.895 9.78695C128.06 9.3667 128.133 8.91689 128.11 8.46691L128.111 7.97596Z" fill="white"/>
<path d="M125.311 12.3181C124.584 12.3474 123.868 12.1412 123.272 11.7313C122.975 11.5139 122.736 11.2279 122.578 10.8984C122.419 10.569 122.346 10.2063 122.363 9.84226C122.349 9.44707 122.439 9.05497 122.625 8.70423C122.81 8.35349 123.085 8.0561 123.423 7.84106C123.743 7.6302 124.096 7.47306 124.468 7.37611C124.871 7.27738 125.28 7.20678 125.693 7.16479C126.431 7.09612 127.163 6.96505 127.878 6.77301C127.878 6.69172 127.878 6.63644 127.878 6.61043C127.899 6.4404 127.883 6.26802 127.832 6.1043C127.781 5.94057 127.696 5.78906 127.582 5.65941C127.188 5.36993 126.701 5.23127 126.21 5.26926C125.786 5.23853 125.362 5.32825 124.989 5.52774C124.669 5.79566 124.454 6.16472 124.382 6.57141L124.327 6.77787L122.53 6.53403L122.585 6.2788C122.667 5.75903 122.891 5.27074 123.232 4.86535C123.573 4.45997 124.019 4.15247 124.522 3.97523C125.129 3.77717 125.766 3.68154 126.405 3.69237C126.906 3.63754 127.412 3.69041 127.89 3.84733C128.368 4.00425 128.805 4.26145 129.171 4.6011C129.411 4.89151 129.572 5.23733 129.637 5.60578C129.697 6.02575 129.721 6.44991 129.709 6.87379V8.63437C129.709 9.90727 129.709 10.2308 129.709 10.2796C129.725 10.801 129.858 11.3125 130.1 11.7768L130.309 12.1377H128.338L128.27 12.0076C128.166 11.8086 128.089 11.5971 128.04 11.3785C127.257 11.9807 126.294 12.3116 125.299 12.3198M126.204 4.78645C126.813 4.74605 127.417 4.92709 127.9 5.29526C128.069 5.46845 128.198 5.67546 128.278 5.90215C128.358 6.12885 128.388 6.36987 128.365 6.60879C128.365 6.65919 128.365 6.77138 128.356 6.95833V7.12088L128.191 7.17779C127.394 7.41864 126.573 7.57612 125.742 7.6476C125.353 7.6862 124.966 7.75137 124.585 7.84268C124.265 7.92482 123.961 8.06006 123.687 8.24259C123.416 8.41327 123.195 8.65105 123.047 8.93209C122.899 9.21314 122.828 9.52757 122.843 9.84387C122.825 10.1325 122.881 10.4208 123.006 10.6828C123.13 10.9447 123.319 11.1721 123.555 11.3444C124.066 11.6897 124.678 11.861 125.298 11.8321C126.321 11.8132 127.302 11.4283 128.057 10.7494L128.411 10.4519L128.459 10.9087C128.481 11.1653 128.544 11.417 128.644 11.6549H129.502C129.339 11.2251 129.244 10.7733 129.221 10.3153C129.221 10.2617 129.213 10.0195 129.213 8.63601V6.8754C129.227 6.48261 129.207 6.08933 129.152 5.70006C129.101 5.41076 128.976 5.13886 128.789 4.90998C128.468 4.62676 128.088 4.41442 127.676 4.28713C127.264 4.15985 126.829 4.12057 126.4 4.17193C125.818 4.16081 125.238 4.24711 124.684 4.42716C124.3 4.55792 123.955 4.78228 123.683 5.07933C123.41 5.37637 123.218 5.73644 123.125 6.12598L123.962 6.23978C124.078 5.79989 124.338 5.40945 124.701 5.12782C125.154 4.86578 125.676 4.7445 126.2 4.77992M125.618 11.2826C125.184 11.2989 124.756 11.1855 124.388 10.9574C124.193 10.836 124.033 10.6662 123.925 10.4651C123.817 10.264 123.765 10.0386 123.773 9.81135C123.77 9.5395 123.851 9.27306 124.005 9.04729C124.217 8.74458 124.533 8.52617 124.894 8.43117C125.216 8.34955 125.542 8.28927 125.871 8.25073C126.6 8.16696 127.317 8.00338 128.009 7.76303L128.34 7.62808V8.47668C128.365 8.96226 128.283 9.44741 128.1 9.89914C127.877 10.3513 127.519 10.7259 127.074 10.9733C126.629 11.2207 126.118 11.3291 125.609 11.2842M127.85 8.33038C127.224 8.51392 126.583 8.64766 125.934 8.7303C125.63 8.76485 125.33 8.81914 125.033 8.89285C124.78 8.95533 124.558 9.10397 124.407 9.31229C124.305 9.45877 124.252 9.63249 124.254 9.80974C124.245 9.9573 124.277 10.1046 124.346 10.2358C124.415 10.367 124.52 10.4771 124.648 10.5543C124.936 10.7284 125.271 10.8139 125.609 10.7998C126.025 10.8434 126.445 10.7602 126.812 10.5613C127.179 10.3624 127.475 10.0575 127.66 9.68782C127.808 9.29968 127.873 8.8857 127.85 8.47182V8.33038Z" fill="white"/>
<path d="M131.532 14.8802V4.10532H132.76V5.11647C133.011 4.74545 133.353 4.44263 133.754 4.23605C134.156 4.02946 134.604 3.92577 135.057 3.93461C135.699 3.9005 136.336 4.07218 136.871 4.4239C137.406 4.77562 137.811 5.28844 138.024 5.88542C138.289 6.53828 138.422 7.23577 138.415 7.93864C138.486 8.63612 138.366 9.33966 138.067 9.97608C137.768 10.6125 137.301 11.1585 136.715 11.5574C136.194 11.8884 135.588 12.0666 134.967 12.0711C134.565 12.0815 134.166 11.9977 133.803 11.8264C133.439 11.6551 133.123 11.4012 132.879 11.0859V14.8753L131.532 14.8802ZM132.75 8.05242C132.725 8.73388 132.879 9.41027 133.197 10.0162C133.352 10.3192 133.592 10.572 133.889 10.7449C134.186 10.9177 134.527 11.0034 134.872 10.9916C135.227 11.0022 135.578 10.9118 135.882 10.7313C136.186 10.5508 136.432 10.2879 136.588 9.97397C136.913 9.34626 137.07 8.64745 137.044 7.9435C137.065 7.25818 136.908 6.57889 136.588 5.96996C136.438 5.66597 136.202 5.41063 135.909 5.23427C135.616 5.05792 135.278 4.96794 134.934 4.97503C134.579 4.97211 134.23 5.06947 133.928 5.25558C133.627 5.4417 133.387 5.7088 133.235 6.02523C132.9 6.65014 132.733 7.34934 132.752 8.05567" fill="white"/>
<path d="M133.119 15.1206H131.286V3.86447H133.002V4.46924C133.554 3.95348 134.292 3.67354 135.053 3.69054C135.745 3.65621 136.429 3.84243 137.005 4.22148C137.58 4.60053 138.015 5.15214 138.246 5.79416C138.524 6.47679 138.663 7.20636 138.656 7.94166C138.727 8.68026 138.595 9.42401 138.276 10.096C137.956 10.7679 137.459 11.3436 136.837 11.7636C136.277 12.1188 135.626 12.31 134.959 12.3147C134.287 12.3299 133.632 12.1052 133.116 11.6823L133.119 15.1206ZM131.777 14.6329H132.628V10.3932L133.066 10.9345C133.286 11.222 133.574 11.4533 133.904 11.6089C134.234 11.7645 134.597 11.8398 134.963 11.8286C135.538 11.824 136.099 11.6588 136.583 11.3523C137.135 10.976 137.573 10.4602 137.852 9.85938C138.131 9.25856 138.239 8.59492 138.167 7.93841C138.173 7.26683 138.047 6.60041 137.795 5.97623C137.601 5.42243 137.228 4.9462 136.733 4.62013C136.238 4.29406 135.648 4.13602 135.053 4.1701C134.639 4.16046 134.229 4.25464 133.862 4.44376C133.495 4.63289 133.183 4.91075 132.955 5.25119L132.511 5.86081V4.34243H131.773V14.6329H131.777ZM134.872 11.219C134.484 11.2325 134.1 11.1369 133.766 10.9433C133.431 10.7498 133.16 10.4665 132.984 10.1265C132.644 9.48452 132.479 8.76724 132.504 8.04408C132.486 7.29771 132.662 6.55912 133.015 5.89819C133.187 5.54294 133.458 5.24339 133.797 5.03485C134.137 4.82632 134.529 4.7175 134.929 4.72121C135.317 4.71282 135.7 4.81365 136.031 5.01181C136.363 5.20997 136.63 5.49721 136.801 5.83967C137.141 6.48396 137.308 7.20298 137.287 7.92863C137.313 8.67344 137.146 9.41251 136.801 10.0762C136.624 10.4275 136.348 10.7216 136.006 10.9233C135.664 11.125 135.27 11.2259 134.872 11.2141M134.929 5.19917C134.617 5.19628 134.31 5.28217 134.046 5.44655C133.783 5.61094 133.572 5.84681 133.442 6.12578C133.129 6.71512 132.974 7.37308 132.992 8.03756C132.968 8.67803 133.111 9.31384 133.408 9.88431C133.543 10.1489 133.752 10.3697 134.011 10.5199C134.27 10.6702 134.568 10.7436 134.868 10.7313C135.18 10.7422 135.487 10.6633 135.754 10.5045C136.02 10.3456 136.234 10.1137 136.368 9.83718C136.672 9.24559 136.818 8.58775 136.793 7.92538C136.813 7.28117 136.667 6.64242 136.368 6.06888C136.239 5.80224 136.034 5.57815 135.778 5.42376C135.522 5.26937 135.226 5.19135 134.926 5.19917" fill="white"/>
<path d="M139.952 14.895L139.804 13.6578C140.054 13.728 140.313 13.7662 140.574 13.7716C140.8 13.7899 141.026 13.7481 141.23 13.6505C141.434 13.553 141.607 13.4033 141.731 13.2173C141.898 12.9012 142.036 12.5716 142.145 12.2321C142.184 12.1232 142.222 12.0175 142.262 11.907L139.261 4.10381H140.703L142.356 8.61827C142.581 9.23764 142.774 9.83914 142.93 10.4195C143.084 9.81825 143.269 9.22518 143.485 8.64265L145.175 4.10217H146.518L143.509 12.0257C143.29 12.6281 143.038 13.2186 142.755 13.7944C142.592 14.165 142.324 14.4815 141.983 14.7059C141.642 14.9303 141.242 15.053 140.832 15.0592C140.533 15.0529 140.238 14.998 139.957 14.8966" fill="white"/>
<path d="M140.822 15.2998C140.498 15.2932 140.177 15.2338 139.873 15.1242L139.727 15.0738L139.517 13.3327L139.865 13.4238C140.095 13.4882 140.333 13.5243 140.572 13.5311C140.755 13.5474 140.94 13.515 141.106 13.4372C141.272 13.3594 141.414 13.2391 141.516 13.0889C141.675 12.7885 141.805 12.4746 141.906 12.1509L141.992 11.9135L138.899 3.86322H140.868L142.576 8.53864C142.698 8.87353 142.811 9.20679 142.906 9.53355C143.009 9.20842 143.118 8.88327 143.237 8.55814L144.988 3.86161H146.854L143.722 12.1086C143.5 12.721 143.244 13.3207 142.954 13.905C142.772 14.3141 142.473 14.6628 142.094 14.909C141.715 15.1553 141.271 15.2887 140.817 15.2933M140.174 14.7064C140.383 14.7715 140.601 14.8065 140.82 14.8105C141.186 14.8045 141.543 14.6937 141.846 14.4916C142.15 14.2895 142.387 14.0049 142.528 13.6725C142.806 13.1064 143.053 12.5263 143.269 11.9347L146.153 4.33954H145.327L143.693 8.72885C143.487 9.30392 143.311 9.88879 143.164 10.4813L142.93 11.3868L142.688 10.4813C142.536 9.90907 142.346 9.31084 142.124 8.70122L140.534 4.34606H139.618L142.525 11.9119L142.493 11.9964C142.455 12.0988 142.415 12.2029 142.377 12.3102C142.266 12.6687 142.12 13.0156 141.939 13.3457C141.794 13.5666 141.592 13.745 141.353 13.8623C141.114 13.9796 140.847 14.0314 140.58 14.0123C140.417 14.0109 140.255 13.9956 140.094 13.9667L140.174 14.7064Z" fill="white"/>
<path d="M158.252 7.69004V6.42527L162.881 6.41713V10.4033C161.619 11.4682 160.018 12.0652 158.355 12.0907C157.365 12.1035 156.386 11.8804 155.503 11.4405C154.619 11.0111 153.899 10.3142 153.448 9.45226C152.988 8.56077 152.755 7.57282 152.768 6.57321C152.758 5.59177 152.97 4.62038 153.39 3.72991C153.789 2.8364 154.476 2.0971 155.346 1.62632C156.24 1.16899 157.237 0.939264 158.246 0.958152C158.925 0.900293 159.609 0.999869 160.243 1.24887C160.876 1.49788 161.441 1.88939 161.893 2.39199C162.288 2.91715 162.569 3.51636 162.719 4.1526L161.41 4.50211C161.313 4.0593 161.113 3.64449 160.826 3.28983C160.539 2.93518 160.174 2.65023 159.757 2.45703C159.28 2.26825 158.771 2.17429 158.257 2.18065C157.726 2.14424 157.193 2.2216 156.695 2.4074C156.197 2.59319 155.745 2.883 155.372 3.25684C154.598 4.15422 154.2 5.3083 154.261 6.48379C154.165 7.2443 154.301 8.0159 154.652 8.6999C155.004 9.3839 155.555 9.94922 156.235 10.3236C156.868 10.6365 157.567 10.7981 158.275 10.7951C158.852 10.7882 159.423 10.686 159.965 10.4927C160.516 10.3245 161.026 10.0479 161.465 9.67985V7.69004H158.252Z" fill="white"/>
<path d="M158.353 12.3245C157.325 12.338 156.308 12.1083 155.389 11.6547C154.461 11.2006 153.704 10.4678 153.228 9.56245C152.751 8.63744 152.508 7.61304 152.52 6.57612C152.51 5.55859 152.73 4.55159 153.167 3.62879C153.59 2.69016 154.314 1.91327 155.228 1.41624C156.159 0.941054 157.197 0.701909 158.245 0.72047C158.962 0.662605 159.683 0.770528 160.349 1.0356C161.016 1.30067 161.61 1.71553 162.084 2.24696C162.502 2.79798 162.8 3.42775 162.959 4.09697L163.02 4.32781L161.243 4.80251L161.175 4.57653C161.088 4.16729 160.905 3.78345 160.642 3.45515C160.379 3.12684 160.042 2.863 159.657 2.68428C159.211 2.50777 158.733 2.4199 158.252 2.42579C157.755 2.39098 157.257 2.462 156.791 2.63398C156.324 2.80596 155.901 3.07488 155.551 3.42233C154.82 4.27724 154.445 5.37277 154.502 6.48833C154.404 7.20355 154.527 7.93135 154.854 8.57724C155.182 9.22313 155.699 9.75726 156.339 10.1103C156.886 10.3783 157.483 10.5311 158.093 10.5591C158.703 10.5871 159.313 10.4896 159.882 10.2729C160.367 10.1222 160.819 9.88641 161.218 9.57708V7.93192H158.007V6.18759L163.123 6.17945V10.5216L163.032 10.5931C161.725 11.6909 160.071 12.3066 158.353 12.3342M158.247 1.20979C157.279 1.19228 156.322 1.41184 155.461 1.84868C154.64 2.29643 153.99 2.99647 153.611 3.84174C153.208 4.70059 153.004 5.6368 153.015 6.58262C153.003 7.54203 153.227 8.48998 153.668 9.34624C154.097 10.1622 154.78 10.8222 155.617 11.2304C156.466 11.6496 157.406 11.8615 158.356 11.8481C159.922 11.8212 161.432 11.2701 162.636 10.2859V6.65088H158.503V7.43122H161.711V9.77704L161.63 9.84858C161.166 10.2381 160.627 10.5316 160.046 10.7118C159.415 10.9496 158.742 11.0562 158.067 11.0249C157.393 10.9936 156.732 10.8249 156.128 10.5297C155.407 10.1355 154.821 9.53934 154.446 8.81709C154.071 8.09483 153.922 7.27912 154.02 6.4737C153.96 5.23817 154.38 4.02656 155.195 3.08418C155.591 2.68566 156.071 2.37608 156.6 2.17659C157.129 1.97709 157.696 1.8924 158.262 1.92833C158.808 1.92309 159.35 2.02363 159.857 2.22421C160.273 2.41083 160.643 2.68412 160.941 3.02516C161.239 3.36621 161.458 3.76686 161.583 4.19939L162.428 3.97343C162.283 3.45263 162.039 2.96343 161.709 2.53146C161.278 2.05945 160.741 1.69244 160.141 1.45941C159.54 1.22637 158.893 1.13368 158.25 1.18865" fill="white"/>
<path d="M164.786 14.895L164.637 13.6578C164.888 13.728 165.147 13.7662 165.407 13.7716C165.633 13.7899 165.86 13.7481 166.063 13.6505C166.267 13.553 166.44 13.4033 166.565 13.2173C166.731 12.9011 166.869 12.5715 166.978 12.2321C167.018 12.1232 167.056 12.0175 167.095 11.907L164.095 4.10381H165.536L167.19 8.61827C167.416 9.23764 167.608 9.83914 167.763 10.4195C167.917 9.81822 168.103 9.22515 168.319 8.64265L170.009 4.10217H171.351L168.342 12.0257C168.123 12.6282 167.872 13.2186 167.588 13.7944C167.426 14.165 167.158 14.4815 166.817 14.7059C166.475 14.9303 166.076 15.053 165.665 15.0592C165.367 15.0531 165.071 14.9981 164.791 14.8966" fill="white"/>
<path d="M165.651 15.2998C165.327 15.2932 165.006 15.2339 164.702 15.1242L164.556 15.0738L164.346 13.3327L164.693 13.4238C164.924 13.4882 165.161 13.5243 165.401 13.5311C165.584 13.5474 165.768 13.515 165.935 13.4372C166.101 13.3594 166.242 13.2391 166.345 13.0889C166.504 12.7886 166.634 12.4746 166.735 12.1509L166.821 11.9135L163.728 3.86322H165.697L167.405 8.53864C167.527 8.87353 167.639 9.20679 167.735 9.53355C167.838 9.20842 167.947 8.88327 168.066 8.55814L169.817 3.86161H171.683L168.55 12.1086C168.329 12.721 168.073 13.3207 167.783 13.905C167.601 14.3141 167.302 14.6628 166.923 14.909C166.543 15.1553 166.1 15.2887 165.646 15.2933M164.999 14.7064C165.208 14.7715 165.426 14.8066 165.646 14.8105C166.012 14.8045 166.369 14.6937 166.672 14.4916C166.975 14.2895 167.212 14.0049 167.353 13.6725C167.631 13.1063 167.878 12.5263 168.094 11.9347L170.979 4.33954H170.152L168.519 8.72885C168.306 9.30406 168.123 9.8895 167.97 10.4829L167.735 11.3884L167.494 10.4829C167.342 9.9107 167.152 9.31246 166.93 8.70283L165.34 4.34768H164.424L167.33 11.9135L167.299 11.9981C167.261 12.1005 167.221 12.2045 167.183 12.3118C167.072 12.6704 166.925 13.0172 166.745 13.3473C166.6 13.5682 166.398 13.7466 166.159 13.8639C165.919 13.9812 165.653 14.033 165.386 14.0139C165.223 14.0126 165.06 13.9974 164.9 13.9684L164.999 14.7064Z" fill="white"/>
<path d="M172.487 11.8972V4.10698H173.689V5.19942C173.938 4.79726 174.293 4.46796 174.715 4.2456C175.137 4.02323 175.612 3.91587 176.091 3.93466C176.566 3.87742 177.046 3.98124 177.453 4.22895C177.86 4.47666 178.168 4.85344 178.328 5.29699C178.581 4.88174 178.94 4.53802 179.368 4.2993C179.797 4.06058 180.281 3.93495 180.773 3.93466C182.409 3.93466 183.227 4.8071 183.227 6.55198V11.8988H181.884V6.99255C181.884 6.10711 181.685 5.5392 181.287 5.28885C181.042 5.14432 180.761 5.07103 180.475 5.0775C179.184 5.0775 178.537 5.84321 178.535 7.37458V11.8972H177.192V6.83647C177.192 5.66166 176.725 5.07481 175.792 5.07589C175.413 5.04815 175.035 5.14634 174.719 5.35473C174.404 5.56313 174.168 5.86967 174.051 6.22524C173.881 6.75028 173.806 7.30038 173.828 7.8509V11.8923H172.489L172.487 11.8972Z" fill="white"/>
<path d="M183.474 12.1359H181.641V6.98901C181.641 6.19569 181.476 5.68847 181.158 5.48852C180.953 5.36767 180.716 5.30731 180.477 5.31458C179.32 5.31458 178.782 5.96483 178.782 7.37266V12.1375H176.949V6.83618C176.949 5.47388 176.288 5.31783 175.792 5.31783C175.463 5.29061 175.134 5.37386 174.86 5.55398C174.585 5.7341 174.381 6.00045 174.281 6.30949C174.121 6.80868 174.051 7.33112 174.072 7.85386V12.1375H172.239V3.86447H173.925V4.51475C174.21 4.24127 174.548 4.02738 174.919 3.886C175.29 3.74461 175.687 3.67867 176.084 3.69216C176.537 3.64913 176.992 3.73322 177.398 3.93467C177.803 4.13611 178.143 4.44663 178.376 4.83012C178.659 4.473 179.022 4.18468 179.437 3.98738C179.852 3.79008 180.307 3.68908 180.768 3.69216C182.534 3.69216 183.468 4.68055 183.468 6.54844L183.474 12.1359ZM182.132 11.6482H182.983V6.54194C182.983 4.91628 182.282 4.16685 180.775 4.16685C180.322 4.16642 179.877 4.28193 179.484 4.502C179.09 4.72206 178.762 5.03909 178.531 5.42186L178.26 5.81364L178.095 5.36496C177.95 4.96925 177.672 4.63418 177.307 4.41557C176.942 4.19696 176.511 4.10803 176.088 4.1636C175.65 4.14333 175.215 4.23973 174.828 4.44261C174.441 4.64549 174.117 4.94731 173.89 5.31619L173.439 6.00385V4.33592H172.727V11.6514H173.578V7.85222C173.554 7.27041 173.635 6.689 173.819 6.13552C173.953 5.73394 174.22 5.38786 174.576 5.15223C174.933 4.91659 175.36 4.80492 175.788 4.83499C176.539 4.83499 177.442 5.18288 177.442 6.83618V11.6579H178.293V7.37591C178.293 5.27717 179.482 4.83662 180.477 4.83662C180.809 4.83067 181.135 4.91689 181.419 5.08535C181.899 5.38772 182.132 6.01035 182.132 6.99387V11.6579V11.6482Z" fill="white"/>
</svg>
