<svg width="498" height="268" viewBox="0 0 498 268" fill="none" xmlns="http://www.w3.org/2000/svg">
<g clip-path="url(#clip0_569_1630)">
<path d="M147.126 160.259V183.64H128.358V201.504C128.267 208.073 125.609 214.348 120.95 218.993C116.291 223.639 109.998 226.289 103.409 226.38H79.4008V203H104.932V106.952H128.358V160.264H147.122L147.126 160.259Z" fill="#3722D1"/>
<path d="M306.948 183.559H145.876V160.17H165.486V72.2501H189.226V111.811C192.39 110.856 195.68 110.383 198.986 110.409H248.141C256.84 110.43 265.191 113.816 271.438 119.852C277.684 125.889 281.338 134.106 281.632 142.775C274.722 136.955 265.913 133.861 256.871 134.079C255.46 134.079 254.246 134.173 252.84 134.267C268.597 135.767 280.888 145.115 281.636 156.338V160.175H307.293C307.293 160.175 309.815 173.711 327.956 183.608L306.948 183.559ZM198.968 134.079C196.631 134.09 194.372 134.921 192.588 136.426C190.803 137.931 189.607 140.014 189.208 142.31V160.175H257.968V143.9C257.906 141.314 256.847 138.851 255.013 137.021C253.178 135.192 250.708 134.137 248.114 134.075L198.968 134.079Z" fill="#3722D1"/>
<path d="M396.622 160.166H427.739V161.474C427.081 171.478 417.979 180.276 406.727 183.546L359.149 183.666C359.149 183.666 391.005 170.121 396.622 160.166ZM455.694 158.669C455.602 165.239 452.944 171.515 448.283 176.16C443.623 180.806 437.329 183.456 430.74 183.546H409.916C415.348 182.505 420.419 180.089 424.644 176.529C427.279 174.212 429.339 171.316 430.661 168.069C431.982 164.823 432.529 161.314 432.258 157.821V70.093H455.707V158.669H455.694Z" fill="#3722D1"/>
<path d="M498 70.0974H474.453V183.55H498V70.0974Z" fill="#3722D1"/>
<path d="M15.9255 80.1281C18.1661 82.1734 21.0937 83.3079 24.1314 83.3079C27.1692 83.3079 30.0968 82.1734 32.3373 80.1281C33.5284 79.1021 34.47 77.8195 35.0908 76.3773C35.7116 74.9351 35.9954 73.371 35.9207 71.8034C35.8607 68.7425 34.5991 65.8272 32.4069 63.6837C30.2147 61.5402 27.2667 60.3396 24.1963 60.3396C21.126 60.3396 18.1781 61.5402 15.9859 63.6837C13.7937 65.8272 12.5321 68.7425 12.4721 71.8034C12.3685 73.3638 12.6279 74.927 13.23 76.371C13.8322 77.8151 14.7608 79.1009 15.9434 80.1281" fill="#3722D1"/>
<path d="M46.6753 106.894H34.1066C25.305 106.937 16.8748 110.436 10.6422 116.633C4.40956 122.83 0.876478 131.225 0.808253 140.001V150.479C0.716393 154.748 1.50102 158.991 3.11398 162.947C4.72694 166.903 7.13414 170.489 10.1877 173.483C13.1223 176.594 16.65 179.09 20.5641 180.825C24.4781 182.56 28.7 183.498 32.9824 183.586C27.0524 176.822 23.9334 168.058 24.2614 159.08C24.2614 158.339 24.3017 157.522 24.3688 156.677C21.9056 153.768 20.4695 150.133 20.2816 146.33C20.0938 142.527 21.1645 138.769 23.3291 135.632C25.4937 132.496 28.6322 130.156 32.2614 128.972C35.8906 127.788 39.8093 127.827 43.4144 129.081L46.6798 108.756V130.613C48.8218 131.901 50.6604 133.635 52.0704 135.695C53.4803 137.755 54.4286 140.094 54.8506 142.553C55.2726 145.011 55.1585 147.531 54.516 149.942C53.8735 152.352 52.7178 154.597 51.1274 156.522C49.537 158.447 47.5492 160.008 45.2995 161.099C43.0498 162.189 40.5908 162.784 38.0899 162.842C35.5891 162.9 33.1051 162.42 30.8069 161.435C28.5088 160.45 26.4504 158.983 24.772 157.133C25.509 163.593 27.9203 169.749 31.7685 174.998C33.464 177.398 35.6559 179.408 38.1964 180.893C40.7369 182.377 43.5671 183.302 46.4961 183.604H70.2359V128.773L46.6753 106.894Z" fill="#3722D1"/>
<path d="M41.5331 80.1281C43.7737 82.1734 46.7013 83.3079 49.739 83.3079C52.7768 83.3079 55.7044 82.1734 57.9449 80.1281C59.136 79.1021 60.0776 77.8195 60.6984 76.3773C61.3192 74.9351 61.603 73.371 61.5283 71.8034C61.4683 68.7425 60.2067 65.8272 58.0145 63.6837C55.8223 61.5402 52.8743 60.3396 49.804 60.3396C46.7336 60.3396 43.7857 61.5402 41.5935 63.6837C39.4013 65.8272 38.1397 68.7425 38.0797 71.8034C37.9775 73.3637 38.2375 74.9264 38.8396 76.3702C39.4416 77.814 40.3695 79.1 41.551 80.1281" fill="#3722D1"/>
<path d="M24.3645 156.691L24.7587 157.138C24.6691 156.454 24.593 155.762 24.5302 155.056C24.4586 155.606 24.4048 156.146 24.3645 156.682" fill="white"/>
<path d="M341.729 71.2183C341.864 73.421 342.65 75.5345 343.989 77.2919C345.328 79.0493 347.159 80.3717 349.251 81.0922C351.343 81.8127 353.602 81.8988 355.743 81.3398C357.884 80.7809 359.811 79.6018 361.28 77.9516C362.75 76.3013 363.696 74.254 363.999 72.068C364.302 69.882 363.949 67.6554 362.984 65.6695C362.018 63.6836 360.485 62.0275 358.576 60.9102C356.667 59.7929 354.469 59.2646 352.26 59.392C349.291 59.5703 346.515 60.9159 344.541 63.1331C342.567 65.3504 341.555 68.2583 341.729 71.2183Z" fill="#00E266"/>
<path d="M348.31 105.862C338.361 106.959 329.168 111.676 322.491 119.111C315.813 126.546 312.121 136.175 312.121 146.155C312.121 156.135 315.813 165.765 322.491 173.199C329.168 180.634 338.361 185.351 348.31 186.448C324.951 190.468 303.137 169.432 303.67 146.159C303.155 122.891 324.96 101.865 348.31 105.862Z" fill="#013DB9"/>
<path d="M382.706 150.702C385.328 141.062 384.288 130.796 379.786 121.873C375.285 112.951 367.638 105.999 358.312 102.352C348.987 98.7045 338.639 98.6181 329.253 102.109C319.868 105.601 312.105 112.424 307.455 121.27C312.234 98.1222 339.844 85.5412 361.38 94.5538C383.283 102.571 394.947 130.488 382.692 150.702" fill="#00E266"/>
<path d="M361.393 170.688C371.2 168.699 379.926 163.174 385.902 155.17C391.878 147.166 394.683 137.246 393.781 127.309C392.879 117.372 388.334 108.115 381.014 101.311C373.694 94.5065 364.115 90.633 354.11 90.4315C377.008 84.3308 400.64 103.325 402.208 126.549C404.819 149.679 385.012 172.577 361.393 170.688Z" fill="#013DB9"/>
<path d="M327.696 118.613C323.433 127.641 322.659 137.92 325.523 147.481C328.387 157.042 334.686 165.215 343.216 170.433C351.746 175.652 361.907 177.551 371.753 175.766C381.6 173.981 390.44 168.638 396.582 160.76C387.798 182.711 358.41 190.236 338.8 177.619C318.644 165.887 312.077 136.361 327.705 118.609" fill="#013DB9"/>
<path d="M147.708 268C147.829 266.973 147.879 264.958 148.009 263.98C148.224 262.641 148.484 261.301 148.73 259.961C149.154 258.192 149.685 256.45 150.32 254.745C150.669 253.95 150.938 252.958 151.328 252.194C151.529 251.748 152.622 249.515 152.819 249.09L153.169 248.496L153.863 247.309C156.217 243.326 159.051 239.645 162.302 236.349C166.261 232.411 170.67 228.951 175.439 226.041C180.258 223.162 185.361 220.787 190.669 218.953C217.817 209.574 247.38 212.361 275.017 218.015C309.453 224.679 344.735 231.793 379.83 232.695C400.363 233.213 422.472 233.615 440.881 223.441C447 219.968 452.067 214.916 455.551 208.815C453.083 215.729 448.635 221.769 442.758 226.188C422.745 241.239 393.124 242.034 368.968 242.195C343.674 241.729 318.48 238.897 293.717 233.736C266.439 228.582 238.6 220.833 210.691 223.598C203.867 224.194 197.117 225.444 190.534 227.331C170.875 232.874 152.121 247.143 147.704 267.973" fill="#013DB9"/>
<path d="M43.1415 56.3106C41.0721 35.4985 63.1367 23.8821 80.8341 20.8183C88.9437 19.4582 97.188 19.0774 105.389 19.6839C133.111 21.2426 160.783 30.1123 188.057 31.537C203.703 32.1711 226.13 33.2877 235.9 18.6924C231.376 32.7786 214.995 37.6823 201.799 39.6519C188.093 41.5106 174.196 41.4986 160.492 39.6162C139.758 37.0705 118.836 31.7469 98.0118 30.1614C88.5119 29.2219 78.9212 29.8909 69.645 32.1399C56.9913 35.3153 45.5469 42.546 43.146 56.3106" fill="#013DB9"/>
<path d="M257.287 30.7509V4.69558H247.518V1.22095H271.012V4.69558H261.198V30.7598L257.287 30.7509Z" fill="#3722D1"/>
<path d="M261.861 31.4029H256.616V5.33864H246.851V0.546509H271.666V5.33864H261.856V31.4029H261.861ZM257.951 30.063H260.531V3.99879H270.344V1.85508H248.181V3.99879H257.959L257.951 30.063Z" fill="#3722D1"/>
<path d="M274.506 30.7465V1.21655H278.143V11.8013C278.928 10.8621 279.915 10.1109 281.031 9.60299C282.146 9.09512 283.362 8.84356 284.588 8.867C285.924 8.70181 287.278 8.95054 288.468 9.57934C289.657 10.2081 290.623 11.1866 291.235 12.3818C291.817 13.9099 292.077 15.5414 291.997 17.174V30.7421H288.36V17.1606C288.36 13.7009 286.847 11.9695 283.822 11.9665C282.754 11.9633 281.706 12.2506 280.79 12.7972C279.88 13.3122 279.166 14.1109 278.756 15.0705C278.292 16.3348 278.082 17.6778 278.138 19.023V30.7331L274.506 30.7465Z" fill="#3722D1"/>
<path d="M292.664 31.4029H287.697V17.1738C287.697 14.0833 286.47 12.6452 283.823 12.6452C282.877 12.6484 281.949 12.9027 281.135 13.3821C280.346 13.821 279.728 14.5115 279.379 15.3428C278.955 16.5263 278.763 17.7803 278.815 19.0362V31.4074H273.834V0.546509H278.801V10.2245C280.422 8.88211 282.473 8.16563 284.58 8.20588C286.044 8.03737 287.524 8.32142 288.821 9.01956C290.118 9.7177 291.169 10.7963 291.831 12.1093C292.455 13.7238 292.734 15.4502 292.651 17.1783V31.4074L292.664 31.4029ZM289.027 30.063H291.334V17.1605C291.408 15.6249 291.168 14.0905 290.631 12.6497C290.07 11.5704 289.189 10.6905 288.107 10.1307C287.025 9.57095 285.796 9.35878 284.588 9.52338C283.456 9.49637 282.333 9.72596 281.302 10.1948C280.272 10.6636 279.362 11.3594 278.64 12.2299L277.476 13.5697V1.87293H275.169V30.0854H277.476V19.0407C277.419 17.6064 277.647 16.175 278.147 14.8291C278.611 13.7393 279.422 12.832 280.454 12.2477C281.473 11.6441 282.637 11.3263 283.823 11.3277C286.197 11.3277 289.027 12.3415 289.027 17.1828V30.081V30.063Z" fill="#3722D1"/>
<path d="M312.18 23.8417L315.934 24.3151C315.495 26.4254 314.29 28.2996 312.549 29.5774C310.809 30.8553 308.656 31.4466 306.505 31.2376C305.079 31.3195 303.652 31.0848 302.327 30.5504C301.003 30.0159 299.813 29.1951 298.846 28.147C297.03 25.9146 296.109 23.09 296.261 20.2197C296.126 17.3318 297.009 14.4879 298.756 12.1807C299.667 11.0793 300.824 10.2061 302.135 9.63142C303.446 9.05668 304.873 8.79635 306.303 8.8713C307.699 8.79855 309.092 9.05691 310.369 9.62521C311.645 10.1935 312.768 11.0555 313.645 12.1405C315.344 14.4006 316.202 17.1793 316.073 20.0008C316.073 20.2241 316.073 20.5502 316.05 20.9879H300.037C300.065 22.8215 300.672 24.5997 301.77 26.0703C302.471 26.9146 303.39 27.551 304.428 27.9101C305.466 28.2693 306.583 28.3374 307.658 28.107C308.732 27.8767 309.722 27.3567 310.52 26.6038C311.319 25.8509 311.894 24.8939 312.185 23.8372M300.238 17.9688H312.234C312.188 16.5105 311.704 15.0995 310.845 13.918C310.31 13.2499 309.628 12.7144 308.851 12.3534C308.074 11.9923 307.223 11.8155 306.366 11.8368C305.558 11.8115 304.753 11.9576 304.006 12.2656C303.258 12.5736 302.585 13.0363 302.03 13.6232C300.929 14.8173 300.293 16.3654 300.238 17.9866" fill="#3722D1"/>
<path d="M306.496 31.8986C304.975 31.9793 303.455 31.7236 302.045 31.15C300.635 30.5763 299.37 29.6988 298.339 28.5803C296.419 26.2277 295.441 23.2492 295.594 20.2197C295.46 17.18 296.393 14.1889 298.232 11.7609C299.205 10.5816 300.44 9.6447 301.84 9.0245C303.239 8.4043 304.765 8.11793 306.295 8.18806C307.791 8.11577 309.283 8.39679 310.65 9.00835C312.017 9.6199 313.219 10.5447 314.16 11.7073C315.947 14.0866 316.855 17.0085 316.731 19.9786C316.731 20.2064 316.731 20.5413 316.708 20.9879L316.686 21.6265H300.754C300.875 23.0827 301.404 24.4756 302.281 25.6461C302.908 26.3985 303.73 26.9646 304.657 27.2825C305.585 27.6004 306.582 27.6578 307.54 27.4485C308.498 27.2392 309.38 26.7712 310.09 26.0957C310.799 25.4202 311.308 24.5631 311.562 23.6184L311.741 23.1227L316.776 23.7524L316.579 24.4894C316.103 26.7416 314.813 28.7408 312.955 30.1062C311.096 31.4716 308.799 32.108 306.5 31.8942M306.299 9.52341C304.967 9.44766 303.637 9.68603 302.415 10.2191C301.193 10.7522 300.114 11.565 299.267 12.5916C297.623 14.7836 296.795 17.477 296.924 20.2108C296.777 22.9185 297.636 25.5852 299.338 27.7005C300.242 28.682 301.355 29.4488 302.595 29.9443C303.835 30.4398 305.172 30.6513 306.505 30.5633C308.376 30.7605 310.257 30.2992 311.822 29.2593C313.388 28.2194 314.54 26.6663 315.078 24.8689L312.619 24.5563C312.205 25.8344 311.388 26.9455 310.291 27.7249C309.194 28.5044 307.874 28.9108 306.527 28.884C305.518 28.9243 304.513 28.726 303.596 28.3053C302.678 27.8846 301.873 27.2535 301.246 26.4634C300.067 24.8832 299.412 22.9751 299.374 21.0058L299.334 20.3046H315.405C315.405 20.1796 315.405 20.0724 315.405 19.983C315.526 17.3145 314.723 14.6858 313.13 12.538C312.314 11.5317 311.269 10.7337 310.082 10.2103C308.894 9.68679 307.599 9.45282 306.303 9.52784M312.964 18.6432H299.526L299.58 17.9376C299.647 16.1664 300.338 14.4756 301.533 13.1633C302.151 12.5138 302.9 12.0017 303.731 11.6608C304.562 11.3198 305.455 11.1576 306.353 11.1848C307.31 11.1632 308.259 11.362 309.127 11.7655C309.995 12.1691 310.757 12.7665 311.356 13.5116C312.304 14.7954 312.842 16.3351 312.897 17.9287L312.964 18.6432ZM300.982 17.3033H311.486C311.377 16.2296 310.979 15.2051 310.335 14.3379C309.862 13.7407 309.256 13.2623 308.564 12.9411C307.873 12.62 307.115 12.4652 306.353 12.4889C305.636 12.4611 304.921 12.5857 304.256 12.8544C303.591 13.1231 302.991 13.5299 302.496 14.0476C301.667 14.9498 301.136 16.0852 300.978 17.2989" fill="#3722D1"/>
<path d="M320.422 30.7465V9.34484H323.679V12.5917C325.058 10.1115 326.606 8.87294 328.323 8.87592C329.659 8.90801 330.959 9.31176 332.077 10.0416L330.818 13.4001C330.011 12.9002 329.081 12.6299 328.131 12.6185C327.323 12.5864 326.53 12.8406 325.892 13.336C325.254 13.8314 324.813 14.5361 324.646 15.325C324.228 16.6971 324.024 18.125 324.041 19.5589V30.7554L320.422 30.7465Z" fill="#3722D1"/>
<path d="M324.731 31.4029H319.759V8.67479H324.346V10.4032C324.798 9.75763 325.392 9.22395 326.083 8.84305C326.774 8.46215 327.543 8.24421 328.332 8.20587C329.787 8.23917 331.205 8.67521 332.426 9.46531L332.874 9.75112L331.15 14.3646L330.464 13.9582C329.764 13.5198 328.957 13.2804 328.131 13.266C327.466 13.2336 326.811 13.4417 326.288 13.852C325.765 14.2622 325.407 14.8471 325.282 15.499C324.886 16.8018 324.692 18.1573 324.708 19.5185V31.376L324.731 31.4029ZM321.094 30.063H323.4V19.5453C323.386 18.0434 323.6 16.548 324.037 15.1104C324.245 14.1869 324.769 13.3645 325.519 12.7849C326.27 12.2053 327.2 11.9048 328.148 11.935C328.948 11.9404 329.738 12.1156 330.464 12.4487L331.261 10.3228C330.366 9.82086 329.359 9.54771 328.332 9.5278C326.881 9.5278 325.51 10.6622 324.261 12.9042L323.015 15.1373V9.99229H321.085V30.0898L321.094 30.063Z" fill="#3722D1"/>
<path d="M348.206 28.1025C346.044 30.0752 343.231 31.1877 340.301 31.2287C338.478 31.3109 336.678 30.7914 335.181 29.7505C334.459 29.2151 333.88 28.5102 333.496 27.6984C333.113 26.8866 332.936 25.993 332.982 25.0967C332.945 24.1193 333.164 23.1492 333.617 22.2816C334.07 21.4141 334.742 20.6789 335.566 20.1483C336.368 19.6073 337.255 19.2056 338.191 18.9603C339.256 18.6992 340.338 18.5111 341.429 18.3976C343.631 18.2082 345.807 17.7875 347.92 17.1426C347.92 16.6513 347.942 16.3342 347.942 16.2047C348.004 15.6405 347.943 15.0698 347.765 14.5307C347.588 13.9916 347.297 13.4965 346.912 13.0784C345.725 12.1756 344.248 11.7372 342.76 11.8458C341.477 11.7545 340.196 12.0434 339.078 12.6764C338.076 13.4989 337.4 14.6497 337.17 15.9233L333.586 15.4321C333.785 14.1138 334.339 12.874 335.188 11.8446C336.038 10.8151 337.151 10.0346 338.41 9.58596C339.981 9.0654 341.629 8.81471 343.284 8.84458C344.542 8.69519 345.819 8.81983 347.024 9.20999C348.23 9.60014 349.336 10.2465 350.267 11.1044C350.845 11.8159 351.23 12.663 351.387 13.5652C351.54 14.6778 351.6 15.8012 351.566 16.9237V21.7606C351.566 24.601 351.566 26.1195 351.588 26.3249C351.637 27.8533 352.027 29.3518 352.73 30.7107H348.937C348.516 29.8917 348.261 28.9976 348.189 28.0801M347.893 19.9741C345.967 20.6572 343.97 21.1216 341.94 21.3586C341.085 21.4589 340.238 21.6171 339.405 21.832C338.566 22.0484 337.832 22.5569 337.335 23.2656C336.989 23.7749 336.809 24.3787 336.82 24.994C336.798 25.509 336.912 26.0206 337.152 26.4771C337.392 26.9337 337.749 27.3188 338.186 27.5933C339.074 28.1436 340.107 28.4159 341.152 28.3749C342.405 28.4928 343.664 28.2283 344.763 27.6166C345.862 27.0049 346.749 26.0747 347.306 24.9493C347.754 23.7948 347.952 22.5591 347.888 21.3229L347.893 19.9741Z" fill="#3722D1"/>
<path d="M340.306 31.9032C338.337 31.9837 336.397 31.4172 334.783 30.2909C333.977 29.6936 333.33 28.9079 332.901 28.0029C332.471 27.0979 332.271 26.1015 332.319 25.1013C332.28 24.0156 332.524 22.9384 333.027 21.9749C333.531 21.0113 334.276 20.1943 335.19 19.6035C336.056 19.0242 337.013 18.5925 338.021 18.3262C339.112 18.0549 340.221 17.861 341.34 17.7456C343.341 17.557 345.322 17.1969 347.262 16.6693C347.262 16.446 347.262 16.2941 347.262 16.2227C347.317 15.7555 347.274 15.282 347.136 14.8322C346.998 14.3824 346.768 13.9661 346.46 13.61C345.392 12.8147 344.071 12.4338 342.742 12.5381C341.593 12.4537 340.444 12.7002 339.432 13.2482C338.566 13.9843 337.985 14.9982 337.788 16.1155L337.64 16.6827L332.771 16.0128L332.919 15.3116C333.143 13.8836 333.749 12.5422 334.672 11.4285C335.596 10.3148 336.804 9.47001 338.169 8.98308C339.813 8.43898 341.538 8.17625 343.271 8.20599C344.627 8.05537 345.999 8.20061 347.293 8.63171C348.587 9.06281 349.772 9.76941 350.764 10.7025C351.414 11.5004 351.849 12.4504 352.027 13.4626C352.189 14.6164 352.254 15.7817 352.22 16.9462V21.783C352.22 25.2799 352.22 26.1687 352.22 26.3027C352.263 27.7354 352.626 29.1404 353.282 30.4159L353.846 31.4074H348.507L348.323 31.0501C348.042 30.5033 347.832 29.9223 347.7 29.3218C345.578 30.9761 342.968 31.8851 340.274 31.9076M342.724 11.2117C344.376 11.1007 346.011 11.5981 347.32 12.6096C347.778 13.0853 348.127 13.6541 348.344 14.2768C348.561 14.8996 348.642 15.5618 348.579 16.2182C348.579 16.3566 348.579 16.6648 348.556 17.1784V17.625L348.108 17.7813C345.949 18.443 343.725 18.8757 341.475 19.072C340.418 19.1781 339.37 19.3571 338.339 19.608C337.472 19.8336 336.649 20.2052 335.907 20.7066C335.172 21.1755 334.574 21.8288 334.172 22.6009C333.77 23.373 333.579 24.2368 333.618 25.1058C333.571 25.8987 333.723 26.6907 334.06 27.4104C334.397 28.1301 334.909 28.7547 335.549 29.228C336.933 30.1768 338.591 30.6474 340.269 30.5679C343.041 30.5161 345.699 29.4586 347.745 27.5934L348.704 26.7761L348.834 28.0311C348.894 28.736 349.064 29.4275 349.336 30.081H351.66C351.219 28.9004 350.962 27.6592 350.899 26.4009C350.899 26.2535 350.876 25.5881 350.876 21.7875V16.9506C350.916 15.8715 350.861 14.7911 350.711 13.7216C350.574 12.9269 350.236 12.1799 349.73 11.5511C348.858 10.773 347.829 10.1897 346.713 9.83997C345.597 9.49029 344.419 9.38238 343.257 9.52349C341.679 9.49292 340.107 9.73001 338.608 10.2247C337.566 10.5839 336.632 11.2003 335.894 12.0163C335.155 12.8324 334.636 13.8216 334.384 14.8917L336.65 15.2044C336.966 13.9959 337.669 12.9233 338.653 12.1496C339.879 11.4297 341.295 11.0965 342.715 11.1938M341.139 29.0582C339.963 29.1031 338.801 28.7917 337.806 28.165C337.276 27.8312 336.844 27.3648 336.552 26.8124C336.259 26.2599 336.117 25.6407 336.14 25.0164C336.131 24.2696 336.349 23.5376 336.767 22.9173C337.343 22.0857 338.197 21.4857 339.177 21.2247C340.047 21.0005 340.931 20.8349 341.824 20.729C343.799 20.4989 345.741 20.0494 347.615 19.3891L348.511 19.0184V21.3497C348.579 22.6837 348.357 24.0166 347.862 25.2576C347.257 26.4997 346.287 27.5289 345.081 28.2086C343.875 28.8882 342.491 29.1861 341.112 29.0627M347.185 20.9478C345.487 21.452 343.751 21.8194 341.994 22.0465C341.171 22.1414 340.356 22.2905 339.553 22.4931C338.868 22.6647 338.266 23.073 337.855 23.6454C337.58 24.0478 337.436 24.525 337.443 25.012C337.417 25.4174 337.503 25.8221 337.691 26.1825C337.879 26.5429 338.162 26.8454 338.509 27.0574C339.29 27.5359 340.196 27.7707 341.112 27.7318C342.241 27.8517 343.379 27.623 344.373 27.0767C345.367 26.5303 346.169 25.6927 346.67 24.677C347.071 23.6107 347.246 22.4734 347.185 21.3364V20.9478Z" fill="#3722D1"/>
<path d="M357.16 38.9416V9.34024H360.488V12.1181C361.168 11.0988 362.094 10.2669 363.182 9.69938C364.269 9.13183 365.483 8.84698 366.71 8.87125C368.451 8.77754 370.176 9.24919 371.625 10.2155C373.075 11.1817 374.171 12.5906 374.75 14.2306C375.468 16.0242 375.827 17.9404 375.807 19.8713C376.001 21.7875 375.675 23.7203 374.866 25.4687C374.056 27.2171 372.791 28.7172 371.203 29.8129C369.791 30.7224 368.149 31.212 366.468 31.2242C365.377 31.253 364.295 31.0226 363.312 30.552C362.328 30.0814 361.471 29.384 360.811 28.5177V38.9283L357.16 38.9416ZM360.461 20.1839C360.392 22.0561 360.809 23.9143 361.671 25.579C362.091 26.4113 362.742 27.1059 363.546 27.5808C364.35 28.0557 365.274 28.2909 366.208 28.2587C367.171 28.2877 368.121 28.0395 368.946 27.5436C369.771 27.0477 370.434 26.3253 370.858 25.4629C371.738 23.7385 372.164 21.8186 372.094 19.8847C372.152 18.0019 371.726 16.1358 370.858 14.4629C370.452 13.6277 369.814 12.9263 369.02 12.4418C368.226 11.9573 367.309 11.7101 366.379 11.7296C365.415 11.7215 364.469 11.989 363.653 12.5003C362.837 13.0116 362.185 13.7454 361.774 14.6147C360.865 16.3315 360.415 18.2524 360.466 20.1929" fill="#3722D1"/>
<path d="M361.461 39.6027H356.493V8.67927H361.143V10.3407C362.639 8.92378 364.638 8.15473 366.701 8.20141C368.575 8.1071 370.429 8.6187 371.988 9.66004C373.546 10.7014 374.726 12.2168 375.351 13.9806C376.104 15.856 376.481 17.8603 376.461 19.8803C376.653 21.9095 376.297 23.9527 375.431 25.7987C374.564 27.6448 373.219 29.2264 371.534 30.3802C370.017 31.3561 368.252 31.8813 366.446 31.8942C364.625 31.936 362.851 31.3188 361.451 30.1568L361.461 39.6027ZM357.823 38.2629H360.13V26.6152L361.317 28.1025C361.914 28.8922 362.692 29.5276 363.586 29.9551C364.48 30.3825 365.464 30.5895 366.455 30.5588C368.013 30.546 369.535 30.0922 370.844 29.2502C372.34 28.2163 373.528 26.7994 374.283 25.1488C375.038 23.4982 375.332 21.675 375.135 19.8714C375.153 18.0264 374.811 16.1956 374.128 14.4808C373.602 12.9594 372.592 11.651 371.251 10.7552C369.91 9.85945 368.312 9.42527 366.701 9.51891C365.579 9.49242 364.468 9.75114 363.474 10.2707C362.479 10.7903 361.634 11.5537 361.017 12.4889L359.812 14.1637V9.99233H357.814V38.2629H357.823ZM366.208 28.884C365.158 28.9211 364.118 28.6584 363.212 28.1267C362.306 27.5951 361.571 26.8166 361.093 25.8828C360.174 24.119 359.726 22.1484 359.794 20.1617C359.745 18.1112 360.222 16.0822 361.178 14.2664C361.644 13.2905 362.379 12.4675 363.298 11.8946C364.217 11.3217 365.281 11.0228 366.365 11.0329C367.416 11.0099 368.452 11.2869 369.35 11.8313C370.249 12.3757 370.972 13.1648 371.436 14.1056C372.357 15.8757 372.811 17.851 372.753 19.8446C372.823 21.8907 372.37 23.9211 371.436 25.7444C370.956 26.7097 370.209 27.5174 369.282 28.0716C368.355 28.6258 367.288 28.9031 366.208 28.8706M366.365 12.346C365.519 12.3381 364.688 12.574 363.973 13.0256C363.258 13.4773 362.689 14.1252 362.334 14.8917C361.487 16.5107 361.067 18.3183 361.116 20.1438C361.051 21.9033 361.439 23.6501 362.244 25.2173C362.608 25.9442 363.175 26.5507 363.877 26.9635C364.579 27.3764 365.385 27.578 366.199 27.5442C367.043 27.574 367.877 27.3574 368.599 26.921C369.32 26.4846 369.899 25.8474 370.262 25.0878C371.086 23.4626 371.482 21.6553 371.413 19.8356C371.468 18.0658 371.072 16.311 370.262 14.7353C369.913 14.0028 369.358 13.3872 368.665 12.963C367.971 12.5389 367.17 12.3245 366.356 12.346" fill="#3722D1"/>
<path d="M379.973 38.9819L379.57 35.5832C380.249 35.7759 380.951 35.8809 381.657 35.8957C382.269 35.946 382.883 35.8311 383.434 35.5631C383.986 35.2951 384.455 34.884 384.793 34.3729C385.243 33.5044 385.618 32.5989 385.912 31.6664C386.02 31.3671 386.123 31.0768 386.23 30.7731L378.101 9.3358H382.006L386.486 21.7382C387.095 23.4398 387.619 25.0922 388.04 26.6866C388.457 25.0348 388.96 23.4055 389.545 21.8052L394.123 9.3313H397.76L389.608 31.0992C389.015 32.7543 388.333 34.3764 387.565 35.9583C387.125 36.9764 386.399 37.846 385.475 38.4625C384.551 39.0789 383.468 39.4159 382.356 39.4329C381.547 39.4158 380.746 39.2649 379.986 38.9863" fill="#3722D1"/>
<path d="M382.329 40.0939C381.451 40.0757 380.582 39.9127 379.758 39.6115L379.364 39.4731L378.795 34.6899L379.736 34.94C380.36 35.1171 381.004 35.2161 381.653 35.2347C382.149 35.2798 382.649 35.1907 383.099 34.977C383.549 34.7633 383.933 34.4326 384.21 34.0199C384.641 33.1948 384.995 32.3323 385.268 31.443L385.5 30.791L377.12 8.67472H382.455L387.081 21.5193C387.413 22.4393 387.718 23.3549 387.977 24.2526C388.255 23.3593 388.551 22.4661 388.873 21.5729L393.617 8.67029H398.674L390.186 31.3269C389.586 33.0092 388.892 34.6568 388.107 36.2619C387.612 37.386 386.803 38.3438 385.776 39.0204C384.748 39.6969 383.547 40.0635 382.316 40.076M380.573 38.4638C381.14 38.6425 381.73 38.7387 382.325 38.7496C383.317 38.7333 384.283 38.4289 385.105 37.8737C385.927 37.3184 386.569 36.5365 386.952 35.6233C387.704 34.068 388.374 32.4744 388.958 30.849L396.775 9.98329H394.535L390.11 22.0419C389.551 23.6217 389.073 25.2285 388.676 26.8563L388.04 29.3439L387.386 26.8563C386.974 25.2842 386.459 23.6407 385.859 21.9659L381.55 10.0012H379.068L386.943 30.7865L386.858 31.0187C386.755 31.3001 386.647 31.5859 386.544 31.8806C386.243 32.8657 385.846 33.8187 385.357 34.7256C384.965 35.3324 384.416 35.8226 383.768 36.1448C383.12 36.467 382.397 36.6093 381.675 36.5567C381.233 36.5529 380.793 36.5111 380.358 36.4317L380.573 38.4638Z" fill="#3722D1"/>
<path d="M429.554 19.1881V15.7134L442.095 15.6911V26.642C438.676 29.5677 434.337 31.2077 429.831 31.2778C427.149 31.3131 424.498 30.7002 422.105 29.4914C419.71 28.3119 417.759 26.3973 416.537 24.0293C415.291 21.5802 414.659 18.866 414.696 16.1199C414.668 13.4236 415.243 10.7549 416.38 8.30859C417.461 5.85388 419.324 3.82283 421.679 2.52947C424.103 1.27307 426.804 0.641964 429.536 0.693852C431.377 0.534899 433.23 0.80846 434.946 1.49254C436.662 2.17662 438.193 3.25219 439.417 4.63298C440.487 6.07572 441.249 7.7219 441.656 9.46982L438.109 10.43C437.845 9.2135 437.304 8.0739 436.527 7.09958C435.75 6.12526 434.759 5.34243 433.63 4.81167C432.339 4.29302 430.958 4.03489 429.567 4.05237C428.127 3.95233 426.683 4.16487 425.333 4.6753C423.984 5.18573 422.762 5.98191 421.751 7.00895C419.652 9.47427 418.576 12.6448 418.741 15.8742C418.479 17.9635 418.848 20.0833 419.801 21.9624C420.753 23.8415 422.246 25.3946 424.089 26.4232C425.803 27.2829 427.697 27.7267 429.616 27.7184C431.178 27.6995 432.726 27.4186 434.194 26.8876C435.686 26.4255 437.068 25.6658 438.257 24.6546V19.1881H429.554Z" fill="#3722D1"/>
<path d="M429.827 31.9209C427.04 31.9582 424.286 31.3271 421.795 30.0808C419.281 28.8333 417.231 26.8201 415.941 24.3329C414.649 21.7917 413.992 18.9774 414.024 16.1287C413.995 13.3333 414.594 10.5668 415.775 8.03163C416.923 5.45299 418.885 3.31867 421.361 1.95321C423.884 0.64774 426.693 -0.00925138 429.535 0.0417407C431.477 -0.117228 433.429 0.179261 435.235 0.907487C437.041 1.63571 438.651 2.77542 439.936 4.2354C441.068 5.74919 441.874 7.47934 442.305 9.31784L442.471 9.95202L437.656 11.2562L437.472 10.6353C437.236 9.51103 436.742 8.45654 436.029 7.5546C435.315 6.65265 434.402 5.92782 433.361 5.43684C432.151 4.9519 430.857 4.7105 429.553 4.72668C428.207 4.63106 426.857 4.82616 425.594 5.29864C424.331 5.77112 423.185 6.50989 422.234 7.46444C420.254 9.8131 419.239 12.8228 419.394 15.8875C419.128 17.8524 419.46 19.8519 420.347 21.6263C421.234 23.4007 422.636 24.8681 424.371 25.838C425.852 26.5742 427.47 26.9942 429.123 27.0711C430.776 27.148 432.427 26.8801 433.97 26.2847C435.282 25.8706 436.508 25.2229 437.589 24.3731V19.8534H428.89V15.0613L442.749 15.039V26.968L442.502 27.1645C438.964 30.1804 434.481 31.8718 429.827 31.9477M429.54 1.38602C426.917 1.33793 424.323 1.94112 421.992 3.14123C419.766 4.37131 418.006 6.2945 416.98 8.61667C415.888 10.9762 415.336 13.5481 415.363 16.1466C415.333 18.7823 415.939 21.3866 417.132 23.7389C418.295 25.9806 420.146 27.7939 422.413 28.9152C424.715 30.0669 427.26 30.649 429.835 30.6123C434.078 30.5383 438.168 29.0244 441.432 26.3204V16.3341H430.234V18.4779H438.924V24.9225L438.704 25.119C437.448 26.189 435.989 26.9955 434.413 27.4905C432.705 28.1438 430.88 28.4367 429.053 28.3506C427.225 28.2645 425.436 27.8013 423.797 26.9903C421.844 25.9072 420.258 24.2694 419.241 22.2852C418.224 20.301 417.822 18.06 418.086 15.8473C417.925 12.453 419.064 9.12441 421.271 6.53545C422.345 5.44063 423.643 4.59013 425.077 4.04207C426.512 3.49401 428.047 3.26133 429.58 3.36005C431.06 3.34563 432.529 3.62186 433.902 4.17291C435.03 4.68561 436.032 5.43639 436.839 6.37333C437.646 7.31026 438.24 8.41096 438.579 9.59923L440.868 8.97847C440.473 7.54769 439.812 6.20374 438.919 5.01699C437.751 3.72025 436.296 2.71199 434.67 2.07179C433.044 1.43159 431.291 1.17695 429.549 1.32796" fill="#3722D1"/>
<path d="M447.255 38.9819L446.852 35.5832C447.532 35.7759 448.233 35.881 448.939 35.8957C449.551 35.946 450.165 35.8311 450.717 35.5631C451.268 35.2951 451.737 34.884 452.075 34.3729C452.525 33.5043 452.9 32.5988 453.195 31.6664C453.302 31.3671 453.405 31.0768 453.513 30.7731L445.383 9.3358H449.289L453.768 21.7382C454.382 23.4398 454.901 25.0922 455.322 26.6866C455.739 25.0347 456.242 23.4054 456.827 21.8052L461.405 9.3313H465.042L456.89 31.0992C456.297 32.7544 455.616 34.3764 454.848 35.9583C454.407 36.9764 453.681 37.846 452.757 38.4625C451.833 39.0789 450.75 39.4159 449.638 39.4329C448.829 39.4163 448.028 39.2653 447.269 38.9863" fill="#3722D1"/>
<path d="M449.598 40.0939C448.72 40.0758 447.851 39.9128 447.027 39.6115L446.633 39.4731L446.064 34.6899L447.004 34.94C447.629 35.1171 448.273 35.2161 448.921 35.2347C449.418 35.2798 449.917 35.1907 450.367 34.977C450.817 34.7633 451.201 34.4326 451.479 34.0199C451.91 33.1949 452.263 32.3324 452.536 31.443L452.769 30.791L444.388 8.67472H449.723L454.35 21.5193C454.682 22.4393 454.986 23.3549 455.246 24.2526C455.524 23.3593 455.819 22.4661 456.142 21.5729L460.885 8.67029H465.942L457.454 31.3269C456.854 33.0093 456.16 34.6568 455.376 36.2619C454.881 37.386 454.072 38.3438 453.044 39.0204C452.017 39.6969 450.816 40.0635 449.584 40.076M447.833 38.4638C448.4 38.6426 448.99 38.7389 449.584 38.7496C450.577 38.7333 451.543 38.4289 452.365 37.8737C453.187 37.3184 453.828 36.5365 454.211 35.6233C454.963 34.0679 455.633 32.4743 456.218 30.849L464.034 9.98329H461.795L457.369 22.0419C456.792 23.6221 456.296 25.2305 455.882 26.8608L455.246 29.3484L454.592 26.8608C454.18 25.2887 453.665 23.6452 453.065 21.9704L448.756 10.0056H446.274L454.149 30.791L454.064 31.0232C453.961 31.3046 453.853 31.5904 453.75 31.8851C453.45 32.8702 453.052 33.8231 452.563 34.73C452.171 35.3368 451.622 35.827 450.974 36.1492C450.326 36.4714 449.603 36.6137 448.881 36.5612C448.439 36.5576 447.999 36.5158 447.564 36.4361L447.833 38.4638Z" fill="#3722D1"/>
<path d="M468.119 30.7465V9.34483H471.376V12.346C472.051 11.2412 473.011 10.3365 474.155 9.72564C475.3 9.11474 476.587 8.81979 477.884 8.87141C479.17 8.71415 480.472 8.99939 481.574 9.67991C482.676 10.3604 483.512 11.3955 483.944 12.6141C484.63 11.4733 485.601 10.529 486.762 9.87318C487.923 9.21734 489.235 8.87221 490.569 8.87141C495 8.87141 497.216 11.2682 497.216 16.0619V30.7509H493.579V17.2722C493.579 14.8397 493.04 13.2795 491.962 12.5917C491.298 12.1947 490.536 11.9933 489.763 12.0111C486.263 12.0111 484.51 14.1147 484.504 18.3218V30.7465H480.867V16.8434C480.867 13.6159 479.602 12.0037 477.073 12.0067C476.046 11.9305 475.023 12.2002 474.167 12.7727C473.312 13.3452 472.675 14.1874 472.356 15.1642C471.896 16.6066 471.692 18.1179 471.752 19.6303V30.7331H468.124L468.119 30.7465Z" fill="#3722D1"/>
<path d="M497.888 31.4029H492.921V17.2632C492.921 15.0837 492.473 13.6903 491.613 13.141C491.056 12.809 490.416 12.6431 489.767 12.6631C486.632 12.6631 485.176 14.4495 485.176 18.3172V31.4074H480.209V16.8434C480.209 13.1008 478.417 12.672 477.073 12.672C476.182 12.5973 475.292 12.826 474.549 13.3208C473.805 13.8157 473.252 14.5474 472.979 15.3964C472.548 16.7678 472.357 18.2031 472.415 19.6392V31.4074H467.447V8.67928H472.016V10.4658C472.787 9.71445 473.704 9.12685 474.709 8.73844C475.714 8.35002 476.788 8.16887 477.866 8.20593C479.092 8.0877 480.325 8.31872 481.424 8.87214C482.523 9.42556 483.442 10.2786 484.074 11.3322C484.842 10.3511 485.826 9.55899 486.95 9.01695C488.074 8.47492 489.307 8.19745 490.555 8.20593C495.339 8.20593 497.87 10.9213 497.87 16.0528L497.888 31.4029ZM494.251 30.0631H496.558V16.035C496.558 11.5689 494.659 9.51 490.574 9.51C489.347 9.50883 488.142 9.82617 487.076 10.4307C486.01 11.0353 485.121 11.9063 484.495 12.9579L483.761 14.0342L483.313 12.8015C482.921 11.7144 482.168 10.7939 481.179 10.1933C480.189 9.59274 479.023 9.34841 477.875 9.50107C476.689 9.44541 475.509 9.71024 474.462 10.2676C473.414 10.825 472.536 11.6541 471.922 12.6675L470.699 14.5567V9.9745H468.769V30.072H471.075V19.6347C471.009 18.0363 471.231 16.439 471.729 14.9185C472.092 13.8152 472.814 12.8644 473.78 12.2171C474.747 11.5698 475.903 11.263 477.064 11.3456C479.098 11.3456 481.543 12.3013 481.543 16.8434V30.0899H483.85V18.3261C483.85 12.5604 487.071 11.3501 489.767 11.3501C490.666 11.3337 491.551 11.5706 492.32 12.0334C493.619 12.8641 494.251 14.5746 494.251 17.2766V30.0899V30.0631Z" fill="#3722D1"/>
</g>
<defs>
<clipPath id="clip0_569_1630">
<rect width="497.199" height="268" fill="white" transform="translate(0.801025)"/>
</clipPath>
</defs>
</svg>
