<svg width="103" height="102" viewBox="0 0 103 102" fill="none" xmlns="http://www.w3.org/2000/svg">
<g clip-path="url(#clip0_542_66)">
<path d="M17.5 102L23.1653 90.6653L34.5 85L23.1653 79.3347L17.5 68L11.8348 79.3347L0.5 85L11.8348 90.6653L17.5 102Z" fill="#CEA579"/>
<path d="M85.5 68L79.8347 79.3347L68.5 85L79.8347 90.6653L85.5 102L91.1653 90.6653L102.5 85L91.1653 79.3347L85.5 68Z" fill="#CEA579"/>
<path d="M57.1653 11.3348L51.5 0L45.8347 11.3348L34.5 17L45.8347 22.6653L51.5 34L57.1653 22.6653L68.5 17L57.1653 11.3348Z" fill="#CEA579"/>
<path d="M23.875 63.75C27.3958 63.75 30.25 60.8958 30.25 57.375C30.25 53.8542 27.3958 51 23.875 51C20.3542 51 17.5 53.8542 17.5 57.375C17.5 60.8958 20.3542 63.75 23.875 63.75Z" fill="#CEA579"/>
<path d="M6.875 46.75C10.3958 46.75 13.25 43.8958 13.25 40.375C13.25 36.8542 10.3958 34 6.875 34C3.35418 34 0.5 36.8542 0.5 40.375C0.5 43.8958 3.35418 46.75 6.875 46.75Z" fill="#CEA579"/>
<path d="M23.875 29.75C27.3958 29.75 30.25 26.8958 30.25 23.375C30.25 19.8542 27.3958 17 23.875 17C20.3542 17 17.5 19.8542 17.5 23.375C17.5 26.8958 20.3542 29.75 23.875 29.75Z" fill="#CEA579"/>
<path d="M6.875 12.75C10.3958 12.75 13.25 9.89581 13.25 6.375C13.25 2.85418 10.3958 0 6.875 0C3.35418 0 0.5 2.85418 0.5 6.375C0.5 9.89581 3.35418 12.75 6.875 12.75Z" fill="#CEA579"/>
<path d="M96.125 63.75C99.6458 63.75 102.5 60.8958 102.5 57.375C102.5 53.8542 99.6458 51 96.125 51C92.6042 51 89.75 53.8542 89.75 57.375C89.75 60.8958 92.6042 63.75 96.125 63.75Z" fill="#CEA579"/>
<path d="M79.125 46.75C82.6458 46.75 85.5 43.8958 85.5 40.375C85.5 36.8542 82.6458 34 79.125 34C75.6042 34 72.75 36.8542 72.75 40.375C72.75 43.8958 75.6042 46.75 79.125 46.75Z" fill="#CEA579"/>
<path d="M96.125 29.75C99.6458 29.75 102.5 26.8958 102.5 23.375C102.5 19.8542 99.6458 17 96.125 17C92.6042 17 89.75 19.8542 89.75 23.375C89.75 26.8958 92.6042 29.75 96.125 29.75Z" fill="#CEA579"/>
<path d="M79.125 12.75C82.6458 12.75 85.5 9.89581 85.5 6.375C85.5 2.85418 82.6458 0 79.125 0C75.6042 0 72.75 2.85418 72.75 6.375C72.75 9.89581 75.6042 12.75 79.125 12.75Z" fill="#CEA579"/>
<path d="M62.125 102C65.6458 102 68.5 99.1458 68.5 95.625C68.5 92.1042 65.6458 89.25 62.125 89.25C58.6042 89.25 55.75 92.1042 55.75 95.625C55.75 99.1458 58.6042 102 62.125 102Z" fill="#CEA579"/>
<path d="M45.125 85C48.6458 85 51.5 82.1458 51.5 78.625C51.5 75.1042 48.6458 72.25 45.125 72.25C41.6042 72.25 38.75 75.1042 38.75 78.625C38.75 82.1458 41.6042 85 45.125 85Z" fill="#CEA579"/>
<path d="M62.125 68C65.6458 68 68.5 65.1458 68.5 61.625C68.5 58.1042 65.6458 55.25 62.125 55.25C58.6042 55.25 55.75 58.1042 55.75 61.625C55.75 65.1458 58.6042 68 62.125 68Z" fill="#CEA579"/>
<path d="M45.125 51C48.6458 51 51.5 48.1458 51.5 44.625C51.5 41.1042 48.6458 38.25 45.125 38.25C41.6042 38.25 38.75 41.1042 38.75 44.625C38.75 48.1458 41.6042 51 45.125 51Z" fill="#CEA579"/>
</g>
<defs>
<clipPath id="clip0_542_66">
<rect width="102" height="102" fill="white" transform="translate(0.5)"/>
</clipPath>
</defs>
</svg>
