<svg width="102" height="102" viewBox="0 0 102 102" fill="none" xmlns="http://www.w3.org/2000/svg">
<path d="M81.3195 49.1682C81.3195 47.5702 80.4228 46.1039 78.9948 45.3772C75.3398 43.5157 71.4255 41.8029 67.0395 40.1369C59.789 37.3574 54.5063 31.9939 51.7608 24.6457C50.116 20.1874 48.4245 16.2179 46.5928 12.5119C45.8745 11.0669 44.3955 10.1489 42.7848 10.1489C41.174 10.1489 39.6865 11.0669 38.9768 12.5162C37.1493 16.2094 35.462 20.1789 33.8173 24.6287C31.0718 31.9897 25.7848 37.3532 18.547 40.1284C14.1355 41.8072 10.217 43.5199 6.57477 45.3772C5.15102 46.0997 4.25427 47.5659 4.25427 49.1639C4.25427 50.7619 5.15102 52.2282 6.57902 52.9549C10.2425 54.8164 14.1568 56.5334 18.5343 58.1909C25.7848 60.9704 31.0675 66.3339 33.813 73.6864C35.4663 78.1617 37.1535 82.1227 38.9768 85.8159C39.695 87.2652 41.1698 88.1832 42.7848 88.1832C44.3998 88.1832 45.8788 87.2652 46.5928 85.8159C48.4245 82.1227 50.1118 78.1532 51.7523 73.6992C54.502 66.3382 59.7933 60.9747 67.0225 58.1994C71.417 56.5334 75.3313 54.8207 78.9948 52.9592C80.4228 52.2324 81.3195 50.7704 81.3195 49.1682Z" fill="#7F8296"/>
<path d="M72.658 27.8036C73.7417 28.3561 74.8085 28.8109 75.8582 29.2104C76.738 29.5504 77.3542 30.1794 77.6857 31.0591C78.0767 32.1344 78.523 33.2054 79.0627 34.3019C79.7725 35.7554 81.2515 36.6818 82.8707 36.6818H82.8792C84.4942 36.6818 85.9732 35.7639 86.6872 34.3146C87.227 33.2224 87.669 32.1471 88.0642 31.0804C88.4042 30.1794 89.0205 29.5504 89.8832 29.2188C90.95 28.8151 92.0125 28.3604 93.0962 27.8079C94.5242 27.0854 95.421 25.6149 95.421 24.0169C95.421 22.4189 94.52 20.9526 93.092 20.2301C92.0125 19.6861 90.95 19.2314 89.896 18.8276C89.0205 18.4919 88.4042 17.8629 88.0685 16.9704C87.669 15.8951 87.227 14.8199 86.683 13.7234C85.969 12.2784 84.49 11.3604 82.875 11.3604H82.8665C81.2472 11.3604 79.7725 12.2826 79.0585 13.7361C78.523 14.8284 78.0767 15.9036 77.69 16.9576C77.35 17.8586 76.7337 18.4876 75.871 18.8191C74.8 19.2271 73.7375 19.6776 72.6537 20.2301C71.2257 20.9526 70.329 22.4189 70.329 24.0169C70.329 25.6149 71.2257 27.0811 72.6537 27.8036H72.658Z" fill="#7F8296"/>
<path d="M95.4252 73.0363C94.0779 72.3521 92.7477 71.7826 91.4387 71.2896C89.9979 70.7371 88.9482 69.6661 88.4084 68.2126C87.9112 66.8696 87.3544 65.5266 86.6829 64.1666C85.9647 62.7173 84.4857 61.7993 82.8749 61.7993C81.2557 61.7993 79.7767 62.7216 79.0669 64.1751C78.3997 65.5351 77.8429 66.8738 77.3584 68.1913C76.8059 69.6661 75.7562 70.7371 74.3367 71.2811C73.0107 71.7826 71.6762 72.3521 70.3332 73.0406C68.9094 73.7673 68.0127 75.2293 68.0127 76.8273C68.0127 78.4253 68.9094 79.8873 70.3332 80.6141C71.6762 81.2983 73.0022 81.8636 74.3239 82.3693C75.7562 82.9176 76.8059 83.9843 77.3499 85.4421C77.8429 86.7808 78.3997 88.1238 79.0712 89.4796C79.7852 90.9288 81.2599 91.8468 82.8792 91.8511C84.4942 91.8511 85.9689 90.9373 86.6872 89.4881C87.3629 88.1281 87.9197 86.7851 88.4127 85.4548C88.9567 83.9843 90.0064 82.9176 91.4387 82.3693C92.7647 81.8636 94.0864 81.3026 95.4294 80.6183C96.8574 79.8916 97.7542 78.4253 97.7542 76.8273C97.7542 75.2293 96.8574 73.7631 95.4294 73.0363H95.4252Z" fill="#7F8296"/>
</svg>
