<svg width="24" height="25" viewBox="0 0 24 25" fill="none" xmlns="http://www.w3.org/2000/svg">
<path d="M2.3569 2.98474C2.52359 2.65874 2.85886 2.45361 3.225 2.45361H8.1C8.41308 2.45361 8.70711 2.60395 8.89041 2.85776L13.5354 9.28932L20.0856 2.73918C20.4663 2.35842 21.0837 2.35842 21.4644 2.73918C21.8452 3.11994 21.8452 3.73728 21.4644 4.11804L14.6919 10.8906L21.5654 20.4077C21.7798 20.7046 21.8098 21.0965 21.6431 21.4225C21.4764 21.7485 21.1411 21.9536 20.775 21.9536H15.9C15.5869 21.9536 15.2929 21.8033 15.1096 21.5495L10.4646 15.1179L3.91443 21.668C3.53367 22.0488 2.91634 22.0488 2.53557 21.668C2.15481 21.2873 2.15481 20.6699 2.53557 20.2892L9.30811 13.5166L2.43459 3.99946C2.22022 3.70264 2.19021 3.31074 2.3569 2.98474Z" fill="#3722D1"/>
</svg>
