<svg width="24" height="25" viewBox="0 0 24 25" fill="none" xmlns="http://www.w3.org/2000/svg">
<path fill-rule="evenodd" clip-rule="evenodd" d="M6.69674 3.47535C8.35573 3.13717 10.1414 2.95361 12 2.95361C13.8586 2.95361 15.6443 3.13717 17.3032 3.47535L17.4305 3.50127C19.3251 3.8869 20.5875 4.14385 21.6754 5.54253C22.7516 6.92619 22.751 8.53081 22.75 11.016V13.3912C22.751 15.8764 22.7516 17.481 21.6754 18.8647C20.5875 20.2634 19.3251 20.5203 17.4305 20.9059L17.3032 20.9319C15.6443 21.27 13.8586 21.4536 12 21.4536C10.1414 21.4536 8.35573 21.27 6.69674 20.9319L6.56946 20.9059C4.67483 20.5203 3.41243 20.2634 2.32458 18.8647C1.2484 17.481 1.249 15.8764 1.24993 13.3912V11.016C1.249 8.53081 1.2484 6.92619 2.32458 5.54253C3.41243 4.14385 4.67483 3.8869 6.56946 3.50127L6.69674 3.47535ZM11.2945 8.45585C11.813 8.67347 12.4429 9.02524 13.213 9.45534C13.3144 9.51195 13.4163 9.56819 13.5183 9.62449C14.0217 9.90239 14.528 10.1819 14.9949 10.5176C15.4145 10.8193 15.8126 11.1932 15.9444 11.7385C16.0184 12.0446 16.0184 12.3626 15.9444 12.6687C15.8126 13.214 15.4145 13.5879 14.9949 13.8896C14.528 14.2253 14.0216 14.5049 13.5182 14.7828C13.4162 14.8391 13.3144 14.8953 13.213 14.9519C12.4429 15.382 11.8131 15.7337 11.2945 15.9514C10.4515 16.3051 9.55759 16.3338 8.82288 15.7318C8.36304 15.355 8.20049 14.8155 8.12917 14.2719C7.95682 12.958 7.95674 11.4498 8.12917 10.1353C8.20049 9.59167 8.36304 9.05219 8.82288 8.67542C9.55759 8.07344 10.4515 8.10206 11.2945 8.45585Z" fill="#3722D1"/>
</svg>
